<svg id="Ebene_1" data-name="Ebene 1" xmlns="http://www.w3.org/2000/svg" viewBox="0 0 1190.6 841.9"><defs><style>.cls-1,.cls-6,.cls-7,.cls-8{fill:none;}.cls-2,.cls-3,.cls-4,.cls-5{isolation:isolate;fill:#ffffff;font-family:CenturyGothic, Century Gothic;}.cls-2{font-size:15px;}.cls-3{font-size:15px;}.cls-4{font-size:15px;}.cls-5{font-size:15px;}.cls-6,.cls-7{stroke:silver;}.cls-6,.cls-7,.cls-8{stroke-linecap:round;stroke-linejoin:round;}.cls-6{stroke-width:0.99px;}.cls-7{stroke-width:1.98px;}.cls-8{stroke:#ffffff;stroke-width:0.71px;}</style></defs><rect class="cls-1" width="1190.6" height="841.9"/><text class="cls-2" transform="translate(44.05 764.72)">A</text><rect class="cls-1" width="1190.6" height="841.9"/><text class="cls-2" transform="translate(1163.75 764.72)">A</text><rect class="cls-1" width="1190.6" height="841.9"/><text class="cls-3" transform="translate(45.31 639.19)">B</text><rect class="cls-1" width="1190.6" height="841.9"/><text class="cls-3" transform="translate(1165 639.19)">B</text><rect class="cls-1" width="1190.6" height="841.9"/><text class="cls-4" transform="translate(43.53 497.45)">C</text><rect class="cls-1" width="1190.6" height="841.9"/><text class="cls-4" transform="translate(1163.22 497.45)">C</text><rect class="cls-1" width="1190.6" height="841.9"/><text class="cls-2" transform="translate(44.04 355.72)">D</text><rect class="cls-1" width="1190.6" height="841.9"/><text class="cls-2" transform="translate(1163.73 355.72)">D</text><rect class="cls-1" width="1190.6" height="841.9"/><text class="cls-2" transform="translate(45.6 213.98)">E</text><rect class="cls-1" width="1190.6" height="841.9"/><text class="cls-2" transform="translate(1165.29 213.98)">E</text><rect class="cls-1" width="1190.6" height="841.9"/><text class="cls-5" transform="translate(45.99 88.64)">F</text><rect class="cls-1" width="1190.6" height="841.9"/><text class="cls-5" transform="translate(1165.68 88.64)">F</text><rect class="cls-1" width="1190.6" height="841.9"/><text class="cls-2" transform="translate(116.34 826.27)">8</text><rect class="cls-1" width="1190.6" height="841.9"/><text class="cls-2" transform="translate(116.34 26.9)">8</text><rect class="cls-1" width="1190.6" height="841.9"/><text class="cls-2" transform="translate(250.98 826.27)">7</text><rect class="cls-1" width="1190.6" height="841.9"/><text class="cls-2" transform="translate(250.98 26.9)">7</text><rect class="cls-1" width="1190.6" height="841.9"/><text class="cls-2" transform="translate(392.71 826.27)">6</text><rect class="cls-1" width="1190.6" height="841.9"/><text class="cls-2" transform="translate(392.71 26.9)">6</text><rect class="cls-1" width="1190.6" height="841.9"/><text class="cls-2" transform="translate(534.45 826.27)">5</text><rect class="cls-1" width="1190.6" height="841.9"/><text class="cls-2" transform="translate(534.45 26.9)">5</text><rect class="cls-1" width="1190.6" height="841.9"/><text class="cls-2" transform="translate(676.19 826.27)">4</text><rect class="cls-1" width="1190.6" height="841.9"/><text class="cls-2" transform="translate(676.19 26.9)">4</text><rect class="cls-1" width="1190.6" height="841.9"/><text class="cls-2" transform="translate(817.92 826.27)">3</text><rect class="cls-1" width="1190.6" height="841.9"/><text class="cls-2" transform="translate(817.92 26.9)">3</text><rect class="cls-1" width="1190.6" height="841.9"/><text class="cls-2" transform="translate(959.65 826.27)">2</text><rect class="cls-1" width="1190.6" height="841.9"/><text class="cls-2" transform="translate(959.65 26.9)">2</text><rect class="cls-1" width="1190.6" height="841.9"/><text class="cls-2" transform="translate(1094.29 826.27)">1</text><rect class="cls-1" width="1190.6" height="841.9"/><text class="cls-2" transform="translate(1094.29 26.9)">1</text><rect class="cls-1" width="1190.6" height="841.9"/><path class="cls-6" d="M1034.6,813.6v14.2m0-799.4V14.2M892.9,813.6v14.2m0-799.4V14.2M751.1,813.6v14.2m0-799.4V14.2M609.4,813.6v14.2m0-799.4V14.2M467.7,813.6v14.2m0-799.4V14.2M325.9,813.6v14.2m0-799.4V14.2M184.2,813.6v14.2m0-799.4V14.2m978,123.3h14.1m-1119.7,0H42.5M1162.2,279.3h14.1m-1119.7,0H42.5M1162.2,421h14.1M56.6,421H42.5M1162.2,562.7h14.1m-1119.7,0H42.5M1162.2,704.5h14.1m-1119.7,0H42.5M609.4,827.8V799.4M1176.3,421H1148M609.4,14.2V42.6M42.5,421H70.8" transform="translate(0 0)"/><rect class="cls-1" width="1190.6" height="841.9"/><path class="cls-7" d="M1176.3,827.8H42.5M1176.3,14.2V827.8M42.5,14.2H1176.3M42.5,827.8V14.2M1162.2,813.6H56.6M1162.2,28.4V813.6M56.6,28.4H1162.2M56.6,813.6V28.4" transform="translate(0 0)"/><rect class="cls-1" width="1190.6" height="841.9"/><path class="cls-8" d="M749.1,300.1h4.6m285.7-.2h.3l1.4-.5,2.1-.7,4.3-1.2,3.7-.7,2.7-.2h.2m-299.9,0h-.4l-1.2.3h-.3l-2,.4-2.6.4-2.1.2m-177.3,2.3h0l.2.1.1.1.1.2.1.2.1.2.1.2m-1-4.2h-.9l-2.7-.1-2.1-.2-1-.1h0m89.8,68.7-.1.1-.2.2-.2.2-.4.2-.4.1-.5.1-.5.1m2.3-.9h0l.2.3m10.3,3.7H677m5.4,2.8h4.4m-.5,1.5h-3.6m-1.1-3.5v.7m-6.5,2.1h-1.2m0,1.8h1.5m-57.6,59.7.7.4.5.1m1.2,0-.5-.1-.6-.4m33.4-119.4-.1-4.4m7.1,5,.3-.1m-.3.1,1.2-13.1m-1.6-8.4-.7-.4-1.3-.4h-.4m3.1,21.8v1.2l-.1.3v.5l-.1.1h-.1l-.1-.2-.1-.7-.1-.2m-6.6-5.1-.1,2.3v1m7.4-12.1-1.2,13.4m-.5-16.8.2.1h.5m-3-5.5h.4l1.3.3,1.1.9.3.3m-6.5,3.5h-.6m11.8,53.7v2.7m-.1-3.6.2-.2m-.8.2-.3.5-.2.5-.2.5-.2.5-.1.5v.1m2,6.7-.3-5.7m-1.1.6H662m0-5h1.4l.3.1h.2m-1.4.6-.3.4-.2.3m0-.9.4.2h.1m20.6,66.1h0l.1-.1v-.1m6.7-1.2-.2.4-.1.4-.1.3v.4l-.1.2m-.1-2.7.4.1.2.2.1.1m-7.2,1.3v-.2l.2-.2.3-.2.4-.2.6-.2m5.1,2.5-.2-1-.3-1.3-.2-.7m-3.4,5.6-.1.2-.2.2h-.1m5,5.3h.9l.2.1v.1h.1m-1.2,6.4.2-.2.2-.6v-2.6l-.2-1.6-.2-1.6m-1.4.2.3,1.6.1,1.6.1,1.4-.1,1.1-.2.7-.2.2m-2.2-2.5.2.7.3.5.3-.1.1-.6.1-1.1-.1-1.4-.3-1.4M619.2,382v.2l.2,1.5.1,1m-6.9,2.2v-.1l-.1-.3.1-.2m7.1-.4-.1-.2h-.1m.3.6h0l-.2.1-.3.1-.4.1-.6.1-.6.1-.7.1m0,0-.1,2.3-.2,1.3m-3.6,0-.2-1.3-.3-2.3m0,0-.1-.1m.2-1v.2l.1.7m0,0,.1,1.1.4,2.7m-1.9-15.7h0v.1h.2l.2.1h.2m0,0,1.9,15.5m5.3-8.5-.2-5.1m-4.4-7.9h-.4l-.8.5-.7.9-.5,1.4-.2,1.5V375m4,15.5-.1-3.8m-.8,3.8L613.2,375m5.2-3.4-.2-.4-.7-.7-.8-.1-.7.5-.6,1-.2,1.3v1.5m-2,.3v-1.7l.2-1.5.5-1.4.7-.9.8-.5.4-.1m67.9,13v.3l.4,1.6v.4m-7.2-14.9-.1.1-.6.6-.3,1-.1,1.3.2,1.5m6.8.4h0l-.1-.1h-.1m-5.4-.6-.2-1.6.1-1.3.3-1,.6-.6h.1m-.5,17.5v-.1l-.1-.1m0-1.9.1.8.2.6m-2.5-11.6h0l.1-.2h.2l.2-.1.2-.1m8.8,11.7-.1-.1-.1-.1-.3-.1-.4-.1-.6-.1-.6.1H682m-4.4,1.4-.1.1v.2m-.3-3.9-.3-.4m-.1-.5.1.5M641.6,311l-.3-.2-.3-.8-.3-1.2-.2-1.7-.2-2-.1-2.3-.1-2.5v-5.1l.1-2.4.2-2.1.2-1.9.3-1.4.2-1.1.3-.5h.2m1.3-.2-.2.1-.3.5-.2,1-.3,1.5-.2,1.9-.2,2.2-.1,2.4v5.1l.1,2.5.1,2.4.2,2,.2,1.7.3,1.2.3.8.3.2M671.1,294l.1-.9.1-2.2.2-1.9.3-1.6.2-1.1.3-.6.2-.1m0,25.5-.2-.1-.3-.7-.3-1.2-.2-1.6-.2-2-.2-2.3v-.4m1.3-.1.1.5.1,2.2.2,2,.2,1.6.3,1.2.3.6.3.2m0-25.2-.3.1-.3.6-.2,1-.3,1.6-.2,1.9-.1,2.2-.1.9m36.1,152.1-.1,1m-.2,0h0v-.4l.1-1m-99.2-1.3.3-1.7.6-4.1m96.3.7-.5,3.7-.7,4.1m-88.6-8.5-.2.4-1,3.9-.8,2.9m4.6-2,.3-1,1.4-4.2m75.5,1.4-.9,2.9-1.3,3.8-.1.4m-5.3,0,.3-.8.6-1.6m-55.6-.4.8-1.5,2.1-4.2m44.5.9-1.7,3.4-2.2,4.2m57.6-31.8H714.6m0,0H694.2m41-35.5H714.6m0,0H694.1m0,34h20.5m0,0h20.6M633.1,344.2l-.9.1m2.2,10.9-.4.1m-2-12.7.7-.1m-4.9.6,3.6-.5m3.8-3.6-.6-.8m6.6-5.3.7,1m-1.3.8-.7-.9m-1,.9h0M670.6,314h-.4m-17.8.1H644m25.4,0h-9.5m.3-3.1h9m-25.3,0h8.4m-.1-3.8h-8.8m25.4,0h-8.3m.1-1h8.1m-25.3,0h8.7m68.6,132.5h0l.8,3.9m-7.5,4.6-1.3-4-1.3-4.2m-.2-.3h-.7m.8,8.5-.1-.3-1.6-3.9-1.5-3.9m2,8.1-.3-.7-1.6-3.4-.4-1.1m0-.7.7,1.6,1.6,3.4.4.9m4.4,0-.2-.4-1-2.3m.1-5.8h0l.2.4,1.5,3.6M183,386.4l-.3.1m.3-.4-.1-.7m.1,0v.2m0-1.1h0l-.2-.1m-11.5-69.6h0m1,56h0m.5.7h0v-.1h-.1v-.1m19.4,3.5.2,2.5.2,2.1m1.6,35.8h0m0-1,.2-.1m-.2.9v.2m.3,1-.3-.9m0,.8.3.1M205,428.6h0m.4.6h0m3.7,55.9h.1m0,0h-.1m-23.6-58.8-.4-2.5-.2-2.1m390.6-31.2v1M290.4,538.3V534m14.9-5.4h-.2l-.4-.2-.6-.3-.8-.3-.7-.4-.7-.2-.4-.2-.1-.1m53.3-109-.1-.1-.4-.2-.7-.3-.7-.3-.7-.3-.7-.3-.4-.2-.1-.1m468.8-18.2h0m0-1.9h0m0,0h0m-.4,3h0m.4-2.6h0m6.7,2.8.3-.3m-7,.1v.2m6.7-.2h-.9m0-.8h.9m-6.7,0h0m5.8-.5h.9m-6.7,0h0m.1-.9h0m6.6,0h-.9m-1.4-.5h-2.9M804.8,399h.9m-2.2,0h.7m-2.7,0h1.2m-2.8,0h1m-2.6,0h.8m-2.4,0h.9m-8.5,12.6h.2m14.2-.1h.6m-4.2,0h2.8m-6.4,0h2.8m-5.4,0h1.8m-4.4,28.2h0m.1-19h0m-1.4,0h0m0,18.9h0m-4.4-19h0l.2.1m0,18.9h0l-.1.1h-.1m-1.3-.1h0m.1-18.9h0m12,.9h-1.1m-14.5,0h-1.4m0,17h1.4m14.5,0h1.1m0-16.4v-.6m0,17v-.5m.2.8v-1.3m3.3-3H798m4.3,0h-1.8m4.3,0h-1.7m4.3,0h-1.7m4.3,0h-1.7m4.3,0h-1.8m1.4,21.8h1.4m-12.2-.2h.9m-34.2-.5,24,.4m-15.5-34.3h-3.1m57.8,2.3h0m-88,88.5h27.4m-100.7,0h32.2m0-41.2H670m100.7,0H743.3M715.4,295.6h1.5m-3,1.8h0m-1.1-.8h-.2l.6.3.8.4m-1.5,2.8h1.4m0-2.7h0m0,0-.8-.4-.6-.3m1.4.7h0m2.4,1.1h0l.1-.1m.5-2.8h2.4m-5.3,1.7h0m0,0,.3.1.6.3.7.4.8.3m.5-2.8-1.4,1-1.5.7m7.8-1.7h2.1m-10,4.5v-2.7m2.6,1.2-.2-.1m0,0-.7-.3-.7-.4-.7-.2-.3-.2m5.1,2.9.1-.2h.1l.1-.1m-.3.3h0m.3-.3h0l-.8-.4-.7-.3-1.3-.7m0,0h0m2.8-3h2.5m-2.5,0-1.4,1.6-1.5,1.2m0,0,.1.1m-2.6,1.6h0m5.1.2h0m-5.1-.2h3.2l1.9.2m4.9-4.7h0m.7,3.4v-.4l-.1-.4-.1-.4-.1-.5-.1-.4-.1-.4-.1-.5-.1-.4m-2.1,0,.7.1h.8l.6-.1m-3,3.4.1-.4.2-.4.1-.4.1-.5.1-.4.1-.4.1-.5.1-.4m-6.4,5.6H724m-5-.8-2.2-.1-1.8-.1h-1m-1.2,0H714m0,0h-1.2m6.2.1h0m5,.4h-1.4l-3.6-.3m26.1-4.8H724m.8,3.4-.1-.4-.1-.4-.1-.4-.1-.5-.1-.4-.1-.4-.1-.5-.1-.4m21.1,0h5.5m-5,2.3-.1-.2-.1-.3v-.2l-.1-.3v-.3l-.1-.3-.1-.4v-.3M724,301.2h0v-.5m21.1.5H724m0-.5h0v-.2m21-.4h-4.2l-16.8.6m21.1-.6h0v1.1m0,0h5.5m307.8-1h0m0,.1h0v-.1m-3.2-.1,3.2.1m0-.1-1.6-2.1-1.6-1.3M745,300.1h0v-.2m296.4.2h-.3l-1-.1h-.7m15.8.1h0m-13.8,0h0m-2-.2v.1m0,0h.7l1,.1h.3m0,0h13.8m0,0v-3.4m3.2,3.6-3.2-.2m0,0h-13.8m0,0H745m0,0h0m.1,0h4m4.1.1,5.6.1m-24.3-.1h3.9m20.4.1h299.6m-3.2-3.6-1.3-.1-2.7.2-3.7.7-4.3,1.2-2.1.7-1.4.5h-.3m15.8-3.2h0m-1.1-.1,1.1.1m3.1,3.4h0m-3.1-3.4,1.6,1.3m-311.2-.1-5,.2-15.8.9m0,0h-.2m0,0-2.5.1-1.2-.1m0,0-2.2-.2-2.2-.3m0,0,1.4.7.7.4.7.4m0,0h0l-.1.1m0,0h0l-.2.2m0,0,1,.1,4,.1m0,0,4-.2,17-.4m0,0h294.4m-455.4.5,5,.2m-332-.5h0m0,0h0m307.8,1.1H569m-4.2-5.6H569m0,0h18.4M568,297l.2-.1.1-.1.1-.1.2-.2.1-.2.1-.2.1-.3.1-.2m20.4,0h1.3m-4.7,1.7.3-.1m4.1.1h0v-.1m-2.1,0h2.1m-21.4,4h20.4m-2-5.6-.2.3-.1.3-.1.2-.1.3-.2.2-.1.1-.1.2h-.2m3.1-1.6-.1.2-.1.3-.2.2-.1.3-.1.2-.2.1-.1.2-.2.1m-.9-1.6h2m-1.1,1.7h0v-.1m-2,0h2m-2,.2h0v-.2m2.4,3h-2.3m2.3-.1h0m1.7,0h0m0,0h12.5m-.3.1H590.4m11,0h1.2m-12.2,0h-1.7m.7,1V301l-.1-.1-.1-.2-.1-.1-.1-.2-.1-.1h-.1l-.1-.1m.7,1h10.7m-9.4-5.6v.2l-.1.3v.4l-.1.2v.3l-.1.2m.3-1.6h9.4m-9.7,1.6,3.6-.1,3.5-.2,2.8-.2,1.8-.1h.6m-12.3.7h0v-.1m12.5-.5h-.7l-1.8.2h-1l-3.1.2-3.7.2h-2.2m-4.4.1h0m.4,2.8h-4.8m4.8-.2h0v.2m0-.2,2.3.1m0,0h1.7m0-2.8v2.8m0-2.8h-2.1m0,0-2,.1m0,0H586m0,0-4.3.2m0,2.4h4.7m-29.8.3H257m0-.2h0v.2m299.6,0v-.2m0,0h0l.1.2m25-.3v-2.4m-.1,2.6-25,.1m.1,0h0m25-.3h0l-.1.2m-23.6-.1,23.7-.1m-23.7.1h-.3l-.4.1h-.6v.1m25-2.7h0M558,300.1h-1.4m25.1-2.5L558,300.1m-296.6-3.5-1.1.1m0,0-1.7,1.3v.1l-.1.1-.4.5-1.1,1.4m0,0H556.6m0,0h0m0,0,3.1-.3,21.9-2.3m0,0,4.4-.2m0,0-12.7-.2L568,297m16,3.3-3.1-.1m7.8.2-1.3-.1h-.5m49.2,65.4v-.9m2.1-4.2h-2.1m0,4.2.6.2m-.6-4.4v4.2m.2,1.5h0l-.1-.2V366l-.1-.3m.2.6.4.3.4.3.3.3.3.4.3.4.2.5.1.4.1.5m-2.3-3.7h0m2.7,3.7v-.5l-.1-.5-.3-.5-.3-.5-.4-.5-.4-.4-.6-.4-.6-.4m.1,0h0l.3-.3.2-.2V365m2.1,4.4v-.5l-.1-.5-.2-.5-.3-.5-.4-.5-.5-.4-.5-.4-.6-.4m2-5.1h3.9m-5.4,4.4,1.5-4.4m1.9,5.7-.2-.1-.3-.1-.3-.1-.4-.2-.5-.2-.5-.2-.6-.2-.6-.2m5.4-4.4h7.1m-7.1,0-2,5.7m0,0-.6,1.7-.7,1.4m10.4-8.8H651m-2.2,5.7.4-5.7m2.1,5.1h0m-1.8,3.7h0l-.6-1.4-.1-1.7m2.5-.6.1.4v.4l-.1.4-.2.5-.3.5-.4.5-.4.5-.5.5m13.2-8.8h11.5m-22.9,5.1.1.4v.4l-.1.4-.2.5-.2.5-.4.5-.4.5-.4.5m5.7-4.9-.1-.1-.3-.3-.1-.5v-.4l.1-.5.3-.3.1-.1m4.3-1.7h3m0,0-.1,5.7m-10.2,0,.1.3.1.3.1.3.1.4.1.4.1.5.1.4v.5m0,0h4.7m-8.1,0h3.4m-3.6,0h.2m-10.9,0h10.7m-10.7,0h0m-.4,0h.4m14.2-8.8h-2m8.4,0h-2.6m-1.9,1.5-.2.1-.5.3-.3.4-.1.6.1.5.3.4.5.3.2.1m-3.9-4.2v4.2m0,0v.2l.1.3.1.2.1.2m0,0,.2.3.3.1.3.2h.3m.6,0h-.6m5.6,0h-1.2m2.9-5.7h-.3m.1,4.4.2-4.4m-.3,0v4.2m-.3.9.1-.2.1-.2.1-.3v-.2m0,0,.1.2m-1.5,1.3v.6l-.1.3v.8l-.1.5v.9m0,0h3.6m-3.4-3.1h.3l.3-.2.3-.1.2-.3m0,0,.1.4.1.4.2.4.3.5.3.5.4.5.4.5.5.5m0,0h.2m-2.5-3.7h0m3.5.6-.6-.1-.5-.1-.5-.1-.5-.2-.4-.2-.3-.2-.2-.2-.1-.2m-.3.7h0l.2-.3.1-.2V365m-.3.7v.4l.1.4.3.4.2.5.4.5.4.5.5.5.5.5m1-3.1-.2,1.7-.8,1.4m-4.8-25.7h-2.5l-.3-.1m-35.4,28-.4.7-.1.3-.1.4m0,1.8.1.6.3.6.9.8M618,373v1.8m4.3-4.6h9.1m-9.1,0-2,.3-.9.4-.8.7m0,.6v-.6m16.1,6h-8.2m0,0h-4.2m-3-.8-.1-.4-.6-4.2m.7,4.6,1.4.6,1.6.2m9.9-3.9-.5.3-.5.4-.6.4-.7.5-.8.5-.8.6-.9.6-.9.6m4.9-5.4H618.6m65.3,5.4h-.7m3.6-7.4h-5.2m-23.3,7.4H634.7m-2.5-3.9.1.2,2.4,3.7m24.6-3.9H632.2m-.8-1.5.1.5.1.2.4.6.2.2m27.9-3.5H631.4m0,2h28.7m-28.7-2v2m37,5.4H658.3m0,0,1-3.9m21.7-3.5h.6m-21.5,0h11.2m-11.2,2v-2m11.2,0h4.5m-2.2,1.4-.4-.7-.6-.4-1.3-.3m.3,7.4h-3.2m5.2-5.4H660.1m-.8,1.5.4-.5.3-.3.1-.4v-.3m8.3,5.4-1-.6-1-.6-1.1-.6-1.2-.5-1.2-.5-1.2-.4-1.2-.4-1.2-.3m14.6-.7v1.8m0-1.8-.1-.7-.2-.7m0,0v.6m0,0-.3,4.2-.1.4m0,0,.5-.8.1-.6.1-.6m-2.3,2.8.9-.2.7-.6m2.8.8h-4.4m-19-66.5h0l-.1-.1v-.2h-.1v-.1m0,0v-1.4l.1-1,.2-1.5m6.8,8.9h0l-.1.1v.1l-.1.1v.1l-.1.1m-6.5-9.4.2.5.2.5.1.5.1.4.1.5v.4l.1.5-.1.4m5.3,5.2.3-.3h.3l.2.3m-5-9.4v1.6l-.1.5v.6l-.1.5-.1.4-.2.5m4.7,5.3v.1l.1.1v.1l.1.1v.1m-4.9-5.8h0l-.6.1m0,0-.5.2-.2.1-.1.2v.1m2.3-.6h-.3l-.3-.1H654m2.9-3.6-.2.5-.2.5-.2.4-.3.5-.2.5-.3.5-.3.4-.3.4m.3.1-.3-.1m-2.4-12,.2,8.3m0,0,1.8-.5m0,0h.6l1,.2.8.3m0,0,.6.4m-4.5-8.9.2-1.1.6-.9.7-.5.9-.2.9.3.7.7.5.9.1,1.1-.2,1.1-.5.9-.8.5-.9.2-.8-.3-.8-.7-.4-.9-.2-1.1m6.2,17.9-.1-.3-.2.3m0,0-.1.4-.1.3-.2.3-.1.1-.1.1h-.1l-.1-.1-.2-.1-.2-.6-.4-1.3-.2-1.7-.2-2.3m0,0h-2.2l-.6-.1h-.6l-.4-.1h-.5m-.1,3.3v.6m7,11.8h0l-.3.1h-3.3l-1.3-.1h-1.2l-.8-.1-.4-.1h-.1m5.4-19.4-.3.4-.2.5-.3.4-.3.4-.3.5-.3.4-.3.4-.3.4m1.7.7h0l-.1-.1-.6-.2-.9-.4h-.1m2.8.4-.2.1h-.1l-.1.1h-.3l-.1.1h-.3m.6-4.1.7-8.3m-.7,8.3v.2l.3,1.6.2,1.3v.7m0,0v4.7l.1.9.1.2v.1h.1l.1-.1.1-.2.2-.9m-.5-16.8-.1-1.4-.6-1.3-.9-.9-1.2-.4-1.1.2-1,.8-.7,1.2-.1,1.4m11.1,52.8-.1.4-.1.4V354l.1.4.2.5m-.4-3.5-.2.4-.2.5-.1.5-.1.5-.1.6-.1.5v.6l.1.5m.7-4.1h0l.3-.1m-.6,0,.2.1h.1m-.8-.2.5.1m-.2,9.4-.5-.2-.3.1m1.7-5.7-1.1.6m-.6-20.6.8.1h.6l.1.1m26.4,81.1-.2.5-.1.2m.3-1v.3m-3.6-5.9h0l.2.1v.1h.1l.1.1.1.1h.1m2.4,4.2-.1.1H689l-.1.1h-.2m.6-.2v.1l.1.1.2.3.3.4v.1m-4-5.6.2.3h.1l.1-.3m0,0,.1-.4.1-.3.2-.3.1-.1.1-.1h.3l.2.2.3.6.5,1.2.5,1.7.6,2.1m-9.2-13.2.1-.3.6-.4.9-.4,1.3-.3,1.3-.2m0,0,1.2-.1h1.1l.6.2.2.2m-1.5,9.9-.1.1v.1l-.1.1-.1.1v.1h-.1v.1m-1.2,4.7-.2-2.3.1-2.9.1-.3.1-.4.1-.2.1-.1h.4l.2.1.6.7.1.1m-2.7,6.8h0l.2-.3m1.9,3.9-.2-.5-.1-.5-.2-.5-.3-.4-.2-.5-.3-.4-.4-.4-.4-.4m1.1-1.5h.9m-1.8,1.2.4-.6.2-.3.2-.2.1-.1m1.1,3.9-.1-.4-.2-.4-.2-.3-.2-.4-.3-.3-.3-.3-.3-.3-.4-.3m5.3-1.7-.2-1-.9-3.4-.3-.9-.1-.2H687l-.1.2v.9m-1,15.3.1-.3h.2l.2.3.3.7.2,1m0,0,.1,1.1.1,1v.9l-.1.5h-.2l-.2-.3m-1.2-11.4-.1,1.2m4.6,5.7-3-15.7m0,0-.4.3-.5.1-.5-.2m0,0,3,15.7m-3-15.7-.3-.6-.1-.3-.2-.1h-.2v1.3l.5,4.4m0,0v.6l.1.8v.9l.1,1.6m1.5,7.8-1.5-7.8m4.5,6.9-1.4.2m-1.6.7.1-.1.1-.1.2-.1.2-.1.2-.1.3-.1h.2l.3-.1m-69-40.9-.2-.4-.1-.5-.1-.4v-.5l-.1-.5.1-.4v-.5l.1-.5m0,3.7-.3-.5-.2-.4-.2-.5-.2-.6-.1-.5-.1-.5-.1-.5v-.6m-5.2,5.1h0l-.1.1v.1h-.1m6.9-1.2h-.3m0,0H619l-.1.1m0,0-.4-.5-.2-.4-.3-.5-.2-.5-.2-.5-.2-.5-.1-.5-.1-.6m1.7,4h0l-.5.2m-2.5.7h.2l.2.1h.4l.1.1h.2m1.4-.9-.7.4-.4.2-.2.2-.1.1m1.4-.9-.4-.4-.3-.4-.4-.3-.3-.4-.2-.5-.3-.4-.2-.4-.2-.4m2.1-10.6-.3-.6-.5-.4-.6-.1-.6.4-.4.7-.3,1v1.1l.2,1,.4.9.5.4.6.1.6-.4.4-.7m-2.1,7.2,1.1-1m0,0,.4-.1.4-.1m0,0,1.2.4m-6-7H612m3.9,11.7v-1.4l.1-1,.1-1.5m-.9-8.1.9,8.1m-2.9-7.8h.3l.2-.1h.6l.3-.1h.2l.2-.1h.2m69.2,10-.2-.3-.2-.3-.1-.3-.1-.3-.1-.4-.1-.4v-.4l.1-.4m.4,2.6-.3-.4-.3-.3-.3-.4-.2-.5-.2-.4-.1-.5-.1-.5-.1-.5m-1.3-9.7-.3-.3-.6-.4-.5.1-.3.5-.2.8.1,1,.3,1.1.4.9.6.7.6.4.5-.1.3-.5.1-.7m-.5,6,.4.1.4.1m0,0,1.2.9m0,0-1.1-7.8m0,0-.4-1.4-.5-1.3-.8-1-.7-.4-.7.1-.4.6-.1,1.1.1,1.4m4.7,11.2-.4-.4-.3-.3-.3-.5-.3-.4-.2-.5-.2-.5-.2-.5-.2-.5m-.9.4.9-.4m2.1,3.6h-.5m1.1.3-.3-.2m0,0-.2-.1h-.1m-.5,0-.6.3-.4.2-.2.1-.1.1m1.3-.7-.4-.3-.3-.3-.4-.4-.3-.4-.3-.5-.3-.4-.3-.5-.2-.4m-3,4.6v.3h-.1v.3l-.1.1m1.9,3.5v.1h.1v.1h.1l.1.1.1.1m-2.1-4.6.2,1.1.9,3.4.3.8.1.2h.1v-.1l.1-.2v-1M676,373.8l3.5,16.2m0,0,.3-.4.4-.1.5.1m-3.5-16.1-1.2.3m4.7,15.8h0l-.1.2v.1l-.1.1-.1.1v.2m.5-5.4h.2l.1.1h.4l.1.1h.3m-1.3,4.5.2.7.2.2.1.2h.2v-.1l.1-.2v-1l-.6-4.5m0,0v-.6l-.1-.8v-2.3m-1.7-8,1.7,8m-3.6-7.7.3-.1.2-.1h.3l.3-.1h.8m1.6,16.4-3.5-16.1m4.8,11.6.1,2.3-.1,2.7-.1.4-.1.4-.1.1-.2.1-.1.1h-.2l-.2-.2-.5-.6-.1-.1m0,0-.2-.2H680l-.1.3m0,0v.4l-.1.3-.1.4-.1.2h-.1v.1h-.2l-.1-.1-.3-.5-.4-1.1-.4-1.6-.5-2m9.8,13.9h0l-.3-.3-.8-.1h-1.1l-1.3.1-1.3.3-1.2.4-.8.3-.4.4-.1.2m-2.7-15.6-.1-.6-.1-.7-.2-.9-.1-1.4m-23.2-82.3h0l-.1-.4v-.5l-.1-.7v-.8l.1-.6.1-.5v-.2m-22.8,68.8v-.2l-.1-.4m0,0V364l-.1-.7.1-.7V362l.1-.3v-.1m55.9,65.8-.1.7.1.7.3.5M618,372h0m61.4,1,.4-.3.4-.2m0,0h.5l.4.3.3.4.2.5v.5l-.2.5-.4.4-.4.2h-.2m.3.4.5-.2.5-.5.3-.6v-.8l-.2-.7-.4-.5-.6-.3-.7-.1m0,0-.6.3-.2.2m-24.4-7.7h0l-.6-.2-.3-.4-.2-.6.1-.5.2-.5.4-.4.4-.1m.9.7.1.5v.5l-.3.5-.4.4-.5.2-.5-.1-.5-.2-.4-.4-.2-.6.1-.5.2-.5.4-.4.6-.2.5.1.5.2.4.5m.4-.3-.5-.5-.7-.4h-.7l-.7.2-.5.5-.4.7v.7l.2.7.5.5.6.4h.8l.7-.2.5-.5.3-.6.1-.8-.2-.7m-25.3-74.7h0l-.3.5-.3,1-.2,1.4-.2,1.7-.1,2-.1,2.2v2.3m0,0,.1,2.3.1,2.2.1,1.9.2,1.5.2,1.2.3.8.2.2m39.5,2.1h0l-.4-.4-.3-1-.3-1.4-.2-1.8-.1-2.1-.1-1.8m0-8.5.1-2.1.2-2.1.2-1.7.2-1.4.3-.8.3-.4h.1m14.4,23h0l-.3.4-.3-.2-.2-.6-.3-1.2-.2-1.4m0-14.2.1-.5.2-1.5.2-1,.3-.5.3-.1.2.4M584,372.5h0v2.8m93,6.7H638.4M662,525.2h-8.5m-63.8-207v8.5m4.2-8.5v8.5m-4.2,0v46.8m4.2-46.8v46.8m-4.2-46.8h4.2m-4.2,63.8v-17m4.2,0v17m-4.2-17h4.2m12.4,65.9v-.7m-.2,0v2.7m.1-2.7h0m0,8.5v-.4l-.1-3.9.1-4.2m.3,0h-.2m0,0v6.5m.4-6.5-.3,4.3-.2,4.2m.7-8.5h.2m-.6,8.5h-.2m0,0v-.4l.2-3.9.4-4.2m1,0h-.8m-.3,8.5h-.3m.6-8.5-.4,4.3-.2,4.2m102,0v-.4l.1-.3m-.2.7h-.2m.7-8.5h-.2m-.5,8.5h-1m-99.1-8.5-.6,4.3-.5,4.2m1.3-8.5h.3m-1.2,8.5h-.3m0,0,.1-.4.5-3.9.6-4.2m1.7,0h-1.4m-.2,8.5h-1m1.2-8.5-.7,4.3-.5,4.2m99.6,0v-.4l.6-3.9.6-4.2m-.4,0h.2m-1.2,8.5h-.3m1.5-8.5-.6,4.3-.6,4.2m1-8.5h-1.1m-.2,8.5h-1.4m1.4,0h0l.1-.4.6-3.9.6-4.2m-97.5,0-.9,4.3-.8,4.2m2-8.5h.3m-1.8,8.5h-.3m0,0,.1-.4.8-3.9.9-4.2m1.7,0h-1.4m-.4,8.5h-1.4m1.8-8.5-1,4.3-.8,4.2m3.2-8.5h.6m-2.4,8.5h0l.9-4.4.9-4.1m92.3,8.5h-.2m.2,0,.1-.4.9-3.9.8-4.2m-.4,0h.2m-1.8,8.5h-.3m2.1-8.5-.9,4.3-.9,4.2m1.6-8.5h-1.5m-.4,8.5h-1.5m1.5,0h0l.1-.4.9-3.9.9-4.2m-1.7,0h.2m-1.9,8.5h-.8m2.7-8.5-.1.5-.8,3.9-1,4.1m-89.3-8.5h0m-.5,1.8.5-1.8m3.3,0h0m-3,0h-.3m-2,8.5H611m2.3-8.5-1.2,4.3-1.1,4.2m4.4-8.5h-1.5m-.9,8.5h-1.4m3.8-8.5h1.1m-2.7,8.5H613m0,0h0l1.2-4.4,1.2-4.1m-1.8,0h.3m-2.3,8.5h-.3m2.6-8.5-1.2,4.3-1.1,4.2m-.3,0,.1-.4,1-3.9,1.2-4.2m89.1,4.8-1.1,3.7m-3.2,0h-.3m5.8-8.5h-.3m-2,8.5h-.4m.4,0,.1-.4,1.1-3.9,1.1-4.2m-.5,0h.2m-2.4,8.5h-.3m2.7-8.5-1.1,4.3-1.3,4.2m-.4-8.5h1.1m-2.4,8.5h-1.1m0,0,1.2-4.2,1.2-4.3m2.6,0h-1.5m-1,8.5h-1.4m1.4,0h0l.1-.4,1.2-3.9,1.2-4.2m-1.5,0-.1.5-1.1,3.9-1.2,4.1m-78.7-8.5h0m0,0h-.7m-2.2,8.5h-.6m-3.2,0h0l.1-.4,1.2-3.9,1.4-4.2m77.2,8.5h-.3m-74.6-8.5h1m-2.8,8.5h-1.1m3.9-8.5-.1.4-1.3,3.9-1.4,4.2m0-8.5h-.4m-2.4,8.5h-.4m2.8-8.5-1.5,4.3-1.3,4.2m83.4-8.5h-.7m-2.2,8.5H694m-74.9-8.5h-1.5m-1.4,8.5h-1.4m1.4,0h0l1.4-4.4,1.5-4.1m81.6,0-1.4,4.3-1.4,4.2m-80.6-8.5h.3m-2.8,8.5h-.3m3.1-8.5-1.5,4.3-1.3,4.2m-.3,0,.1-.4,1.3-3.9,1.4-4.2m80.2,0h1.1m-2.9,8.5h-1.1m0,0,1.5-4.2,1.4-4.3m3.2,0h-.4m-2.5,8.5h-.4m.4,0,.2-.4,1.4-3.9,1.3-4.2m-.7,0h.3m-2.9,8.5h-.3m3.2-8.5-1.4,4.3-1.5,4.2m2.6-8.5h-1.4m-1.5,8.5h-1.4m1.4,0h0l.1-.4,1.4-3.9,1.4-4.2m-1.4,0-.2.5-1.3,3.9-1.4,4.1M625,438.7h.8m-3.8,8.5h-.2m70.8-8.5h.3m-3.2,8.5h-1M625,438.7h-.6m-2.6,8.5h-.7m.7,0,.1-.5,1.4-3.8,1.7-4.2m-7.2,8.5h0l.2-.4,1.4-3.9,1.7-4.2m72.5,0h-.7m-2.6,8.5h-.6m3.2-8.5-1.5,4.3-1.5,3.8-.2.4m-66.3-8.5h1m-3.3,8.5h-1m4.3-8.5-.2.4-1.5,3.9-1.6,4.2m.6-8.5h-.5m-2.9,8.5h-.4m3.3-8.5-1.7,4.3-1.6,4.2m5.5-8.5H622m-1.9,8.5h-1.4m1.4,0h0l1.6-4.4,1.7-4.1m73.5,0-1.7,4.3-1.6,4.2m-71.9-8.5h.3m-3.3,8.5h-.4m3.7-8.5-1.7,4.3-1.6,4.2m-.4,0,.2-.4,1.5-3.9,1.7-4.2m71.9,0h1m-3.3,8.5h-1m0,0L692,443l1.6-4.3m3.2,0h-.4m-2.9,8.5H693m.5,0,.1-.4,1.6-3.9,1.6-4.2m-.8,0h.4m-3.4,8.5h-.4m3.8-8.5-1.7,4.3-1.7,4.2m3-8.5h-1.4m-2,8.5h-1.3m1.3,0h0l.2-.4,1.6-3.9,1.6-4.2m-1.4,0-.2.5-1.5,3.9-1.6,4.1m-61.7-8.5h1.1m-3.6,8.5h-1m61.4-8.5h1.1m-3.7,8.5h-1m-54.3-8.5h-.5m-3,8.5h-.6m.6,0,.2-.5,1.5-3.8,1.8-4.2m1.5,0h-.4m0,0-2,4.6-1.6,3.9m60.4-8.5h0m-3.6,8.5h-.6m.6,0,.3-.8,1.7-3.8,1.6-3.9m1.6,0h-.5m-3.2,8.5h-.5m3.7-8.5-1.8,4.3-1.7,3.8-.2.4m-56.7-8.5h.9m-3.6,8.5h-1m4.6-8.5-.2.4-1.6,3.9-1.8,4.2m-3.3,0h0l.2-.4,1.6-3.9,1.9-4.2m63.2,0h1m-3.8,8.5h-.9m0,0,1.9-4.2,1.8-4.3m3.3,0-1.9,4.3-1.8,4.2m-62.1-8.5H626m-3.2,8.5h-.5m3.7-8.5-1.9,4.3-1.8,4.2m5.9-8.5h-1.3m-2.4,8.5h-1.3m1.3,0h0l1.9-4.4,1.8-4.1m-1.6,0h.3m-3.7,8.5h-.4m4.1-8.5L625,443l-1.8,4.2m-.4,0,.2-.4,1.7-3.9,1.9-4.2m65.7,0h-.5m-3.3,8.5H688m.5,0,.2-.4,1.8-3.9,1.8-4.2m-.9,0h.4m-3.8,8.5h-.4m4.2-8.5-1.9,4.3-1.9,4.2m3.4-8.5h-1.3m-2.5,8.5h-1.3m1.3,0h0l.2-.4,1.8-3.9,1.8-4.2m-1.3,0-.2.5-1.7,3.9-1.9,4.1m-51.5-8.5h1m-3.9,8.5h-1m51.7-8.5h1.1m-4,8.5h-1m-41.9-8.5h-1m-3.2,8.5h-.7m3.9-8.5-2.1,4.6-1.8,3.9m50.7-8.5h-.7m-3.2,8.5h-1.1m1.1,0,.4-.8,1.8-3.8,1.7-3.9m-47.8,0h-.5m-3.4,8.5h-.5m.5,0,.2-.5,1.7-3.8,2-4.2m49.4,0h-.5m-3.5,8.5h-.5m4-8.5-2,4.3-1.7,3.8-.3.4m-46.2-8.5h.8m-3.9,8.5h-.9m4.8-8.5-.2.4-1.8,3.9-1.9,4.2m53.8-8.5h.8m-4,8.5h-.8m0,0,2-4.2,2-4.3m-57,8.5h0l.1-.4,1.9-3.9,2-4.2m56.1,0-2,4.3-2,4.2m-49.8-8.5h-1.2m-2.8,8.5h-1.3m1.3,0h0l2-4.4,2-4.1m-1.5,0h-.6m-3.5,8.5h-.6m4.1-8.5-2.1,4.3-2,4.2m4.7-8.5h.3m-4.1,8.5h-.3m4.4-8.5-2.1,4.3-2,4.2m-.3,0,.2-.4,1.8-3.9,2.1-4.2m8.3,0h.9m-4.1,8.5h-1m51.1-8.5h-.6m-3.5,8.5h-.6m.6,0,.2-.4,1.9-3.9,2-4.2m-9.8,0h-1.2m-3,8.5H672m14.3-8.5H685m-2.8,8.5H681m4-8.5-.2.5-1.8,3.9-2,4.1m-38.5-8.5h-1.3m-2.9,8.5h-1.2m4.1-8.5-2.2,4.6-1.9,3.9m49.2-8.5h.3m-4.1,8.5h-.3m4.4-8.5-2,4.3-2.1,4.2m-.3,0h0l.1-.4,2-3.9,2-4.2m-8.9,0h1m-4.2,8.5h-1m0,0,.4-.8,1.9-3.8,1.9-3.9m-37.1,0h-.4m-3.8,8.5h-.4m.4,0,.2-.5,1.9-3.8,2.1-4.2m38.5,0h-.4m-3.9,8.5h-.3m4.2-8.5-2.1,4.3-1.9,3.8-.2.4m-2.2,0h0m4.2-8.5-2.3,4.6-1.9,3.9m-.2-8.5h-1.2m-3.1,8.5h-1.3m-27-8.5h.7m-4.2,8.5h-.8m5-8.5-.2.4-1.9,3.9-2.1,4.2m12.5-8.5h-1.3m-3,8.5h-1.3m36.2-8.5h.7m-4.3,8.5h-.7m0,0,2.2-4.2,2.1-4.3m-32.8,0h.9m-4.3,8.5h-.9m5.2-8.5-2.3,4.6-2,3.9m29.2-8.5h1m-4.4,8.5h-.9m0,0,.4-.8,1.9-3.8,2-3.9m-34.9,0h0m0,0-.3.5-1.9,3.9-.7,1.3m32-5.7h-1.3m-3.1,8.5h-1.3m17.3,0h0m0,0h0l2.2-4.4,1.6-3.2m-11-.9h.2m-4.4,8.5h-.4m4.8-8.5-2.4,4.6-2,3.9m-33.6,0h0l.2-.4,1.2-2.4m14.2-5.7h.3m-4.5,8.5h0m-.1,0,.4-.8,1.9-3.8,2-3.9m5.9,0h-1.3m-3.1,8.5h-1.3m33.4-8.5-.4.9m-8.3-.9h-.3m-4.2,8.5h-.2m4.4-8.5-2.2,4.3-2,3.8-.2.4m-8.3-8.5h-1.3m-3.2,8.5h-1.3m-15.1-8.5h-1.1m-3.2,8.5h-1.2m1.2,0h0l2.2-4.4,2.1-4.1m6.8,0h-.2m-4.1,8.5h-.3m.3,0,.2-.5,1.9-3.8,2.2-4.2m-8.2,0h-.7m-3.7,8.5h-.6m4.3-8.5-2.2,4.3-2.1,4.2m5-8.5h.3m-4.4,8.5h-.3m4.7-8.5-2.2,4.3-2.2,4.2m-.3,0,.2-.4,2-3.9,2.2-4.2m43.9,0h-.6m-3.8,8.5h-.7m.7,0,.2-.4,2-3.9,2.2-4.2m-1,0h-1.2m-3.2,8.5h-1.1m4.3-8.5-.2.5-2,3.9-2.1,4.1m-9.2-8.5h.9m-4.5,8.5h-.8m0,0,.4-.8,2-3.8,2-3.9m14.7,0h.4m-4.5,8.5h-.3m4.8-8.5-2.3,4.3-2.2,4.2m-.3,0h0l.2-.4,2-3.9,2.2-4.2m-28.7,0h.8m-4.4,8.5h-.9m5.3-8.5-2.4,4.6-2,3.9m15.9-8.5h.4m-4.4,8.5h-.8m5.2-8.5-2.4,4.6-2,3.9m-.2-8.5h.8m-4.6,8.5h-.7m0,0,.4-.8,2-3.8,2.1-3.9m-6,0h.8m-4.8,8.5h-.4m0,0,.4-.8,2-3.8,2-3.9m3.9,0h.8m-4.5,8.5h-.8m5.3-8.5-2.4,4.6-2.1,3.9m12.8-8.5h-.2m0,0-2.2,4.3-2,3.8-.3.4m-17.2-8.5h.6m-4.4,8.5h-.7m5.1-8.5-.2.4-2,3.9-2.2,4.2m31.7-8.5h.6m-4.5,8.5h-.6m0,0,2.3-4.2,2.2-4.3m-25.6,8.5h-.2m.2,0,.2-.5,2-3.8,2.3-4.2m8.9,0-2.3,4.3-2,3.8-.2.4m-2.9,0,.2-.5,2-3.8,2.3-4.2m18.1,0h0m-4.4,8.5h-.3m.3,0h0l2.3-4.4,2.1-4.1m-33.1,0h-.3m-4.3,8.5h0m4.3-8.5-.2.5-2.1,3.9-2.1,4.1m37.7-8.5-2.3,4.3-2.3,4.2m-33,0h0l.2-.4,2.1-3.9,2.3-4.2m2.2,0h-1m-3.5,8.5h-1.1m1.1,0h0l2.3-4.4,2.2-4.1m21.9,0h.5m-4.6,8.5h-.5m0,0,2.3-4.2,2.3-4.3m7.7,0h-1.1m-3.6,8.5h-.9m4.5-8.5-.3.5-2,3.9-2.2,4.1m6.5-8.5h-.6m-4,8.5h-.6m.6,0,.2-.4,2.2-3.9,2.2-4.2m-.9,0h.3m-4.6,8.5h-.4m5-8.5-2.3,4.3-2.3,4.2m-.4,0h0l.2-.4,2.2-3.9,2.3-4.2m-23.4,0h.4m-4.5,8.5h-.6m5.1-8.5-.2.4-2.1,3.9-2.2,4.2m-3.4-8.5h-.7m-3.9,8.5h-.7m4.6-8.5-2.3,4.3-2.3,4.2m5.3-8.5h.3m-4.6,8.5h-.3m4.9-8.5-2.3,4.3-2.3,4.2m-.3,0,.2-.4,2.1-3.9,2.3-4.2m20.1,0h0m-4.5,8.5h-.3m4.9-8.5-.2.4-2.1,3.9-2.3,4.2m1.5-8.5h.4m-4.7,8.5h-.3m0,0,2.3-4.2,2.3-4.3m-6.1,0h.2m-4.8,8.5,2.3-4.2,2.3-4.3m2.8,0h.3m-4.6,8.5H653m5-8.5-.2.4-2.1,3.9-2.3,4.2m16.7-8.5h-.3m-4.3,8.5H665m.5,0h0l2.4-4.4,2.2-4.1m-20.8,0h-.5m-4.2,8.5h-.4m4.6-8.5-.2.5-2.1,3.9-2.3,4.1m24.4-8.5h-1m-3.8,8.5H663m4.6-8.5-.2.5-2.2,3.9-2.2,4.1m2,0h-.2m5-8.5-2.4,4.3-2.4,4.2m4.5-8.5h-.6m-4.1,8.5h-.7m.7,0,.2-.4,2.2-3.9,2.3-4.2m-18.1,0h-.9m-3.8,8.5h-.9m.9,0h0l2.4-4.4,2.3-4.1m17.2,0h.3m-4.8,8.5h-.3m5.1-8.5-2.4,4.3-2.4,4.2m-.3,0h0l.2-.4,2.2-3.9,2.4-4.2m-19.3,0h.3m-5,8.5h0l.2-.4,2.1-3.9,2.4-4.2m.9,0h.3m-4.7,8.5h-.3m5-8.5-2.4,4.3-2.3,4.2m4.4-8.5h-.6m-4.1,8.5h-.7m4.8-8.5-2.5,4.3-2.3,4.2m.7,0,.2-.4,2.2-3.9,2.3-4.2m13.8,0h-.6m-4.2,8.5h-.6m.6,0h0l2.5-4.4,2.3-4.1m-1.8,0h-.8m-4.1,8.5h-.6m4.7-8.5-.3.5-2.1,3.9-2.3,4.1m6.5-8.5h.2m-4.8,8.5h-.3m5.1-8.5L661,443l-2.4,4.2m4.6-8.5h-.7m-4.2,8.5h-.7m.7,0,.2-.4,2.3-3.9,2.4-4.2m-1,0h.3m-4.9,8.5h-.3m5.2-8.5L660,443l-2.4,4.2m-.3,0h0l.2-.4,2.3-3.9,2.4-4.2m-6.5,0h-.6m-4.2,8.5h-.5m4.7-8.5-.3.5-2.1,3.9-2.3,4.1m7.3-8.5H657m-4,8.5h-.9m.9,0h0l2.4-4.4,2.3-4.1m-2,0h.3m-5.1,8.5h0l.2-.4,2.2-3.9,2.4-4.2m1,0h.3m-4.9,8.5h-.3m5.2-8.5-2.5,4.3-2.4,4.2m4.6-8.5H656m-4.2,8.5h-.6m4.8-8.5-2.5,4.3-2.3,4.2m.6,0,.3-.4,2.2-3.9,2.4-4.2m12.3-56H647.9m0,0h-1.5m-56.7,78.7h163M610.9,434.5l-2.2.2-2,.9-1.8,1.3-1.3,1.8-.9,2.1-.3,2.2.3,2.2.9,2,1.3,1.8,1.8,1.3,2,.9,2.2.3m140-57.4-.1-.7-.4-.6-.6-.4-.7-.1-.6.1-.6.4-.4.6-.1.7.1.6.4.6.6.4.6.1.7-.1.6-.4.4-.6.1-.6M651.1,405l.2-.1.2-.1.3-.1h.2m26.2-14.2H589.7m163,0H685.6m52.9,7.1,1.4.1,1.3.4,1.2.7,1.1.9.9,1.1.6,1.2.4,1.3.2,1.4m-21.3,46.8,2.2-.3,2.1-.9,1.7-1.3,1.4-1.8.8-2,.3-2.2-.3-2.2-.8-2.1-1.4-1.8-1.7-1.3-2.1-.9-2.2-.2m-31.2-29.8V416m0-11.3.2-1.4.4-1.3.6-1.2.9-1.1,1.1-.9,1.2-.7,1.3-.4,1.4-.1m38.3,0H700.2M745.6,416V404.7m0,11.3-.2,1.4-.4,1.3-.6,1.3-.9,1-1.1.9-1.2.7-1.3.4-1.4.1m-38.3,0h38.3m-38.3,0-1.4-.1-1.3-.4-1.2-.7-1.1-.9-.9-1-.6-1.3-.4-1.3-.2-1.4m-87.5,41.8-.1-.6-.4-.6-.6-.4-.6-.1-.7.1-.6.4-.4.6-.1.6.1.7.4.6.6.4.7.1.6-.1.6-.4.4-.6.1-.7m131.8,0-.1-.6-.4-.6-.6-.4-.6-.1-.7.1-.6.4-.4.6-.1.6.1.7.4.6.6.4.7.1.6-.1.6-.4.4-.6.1-.7M736,426.7l-.1-.7-.4-.6-.6-.4-.7-.1-.6.1-.6.4-.4.6-.1.7.1.6.4.6.6.4.6.1.7-.1.6-.4.4-.6.1-.6m-57.5-34.3h-.2l-.6.4-.4.6-.1.7.1.6.4.6.6.4.7.1h.1m-68.2,55.7H724.3m0-17H610.9M640,415h0l.5-.1.5-.4.3-.4.1-.6m0,0-.1-.5-.3-.5-.5-.3-.5-.1m12,10.3h27.6m-27.6,0h-.2l-.3-.1-.2-.1-.2-.1m29.6-17.4H652m-62.3,23.8v32.9m0-70.9v1.1m163,69.8V390.5m-76.5,23.9.4.4.6.2.5-.1.5-.2.4-.4.1-.6v-.5l-.2-.5-.5-.4-.5-.2-.5.1-.5.2-.4.4-.2.6.1.5.2.5m6.1-1-1.4-2.2m-6.7,5.2,11,12.3m-4.3-17.5-1.1-1.1-1.4-.7-1.5-.1-1.5.5-1.2.9-.8,1.3-.3,1.5.3,1.6.8,1.3m3.1-4.3-.5.1-.5.3-.3.5-.1.5.1.6.3.4.5.4.5.1.6-.1.4-.4.4-.4.1-.6-.1-.5-.4-.5-.4-.3-.6-.1m11.2-7.1h-.3m1.9,16.6.4-.4.4-.4.3-.5.1-.5.1-.6m0,0V407.9m0,0-.1-.6-.1-.5-.3-.5-.4-.4-.4-.4-.5-.2-.5-.2-.6-.1m-40.4,17.1h3.4m0-17.1h-3.4m0,0-.5.1-.5.2-.5.2-.5.4-.3.4-.3.5-.1.5-.1.6m0,0v11.3m0,0,.1.6.1.5.3.5.3.4.5.4.5.2.5.2.5.1m4.2,0h-.8m0-17.1h.8m-.8,17.1V405m29.2,0H652.3m0,0v17.1m0,0h27m-40.9-36.5h19.3m0,0h19.4m1.4,7.1h0l-.5.4-.3.4-.1.6.1.5.3.5.4.3.6.1m53.9,30.4h2.7m-99.1,10h21.2m0,0H679m53.7-9.2.1-.6.3-.5.5-.4.6-.1.6.1.5.4.4.5.1.6-.1.6-.4.5-.5.3-.6.1-.6-.1-.5-.3-.3-.5-.1-.6m-39.5-9.6h1.3m.3-37.9h19.8m0,0h19.9m0,35.4H714.6m0,0H694.8m-64-56.2.7,5.3m0,0,.3,1.8.3,1.7.4,1.3.3.9.3.2m1.5-6.4-3.1.5m-.7-5.3-.1-.4v-.3l-.1-.3V357l-.1-.3-.1-.3V356l-.1-.3m3.6,2.2-3.1.5M628.4,338l-.2.4-.1.6.2.6h.1M627,346l1,1.6m0,0,.8,1.6.6,1.8.5,1.7m0,0,.4,3m0,0,3.2-.5m-6.1-17.9-.5.1-.5.4-.2.6-.1.6.2.6.4.4.6.3h.1M627,346l-.5-.9-.5-.8-.1-.1m5.9,1.1-4.8.7m9,20.1-.1.2-.1.2m0,0-.2-.2-.2-.7-.2-1.1-.2-1.3-.2-1.2-.1-1.1.1-.7.1-.3.2.3v.1m-3.7-17.7-.3-2m.3,2,.1.3v.4l.1.3v.3l.1.4v.3l.1.3v.4m1.7,9.9-1.7-9.9m1.7,9.9v.4l.1.3v.3l.1.4v.3l.1.3v.4l.1.3m.7,5.3-.7-5.3m2.5,8.5v.3l.1,1.4-.1.8-.2.3-.3-.3-.3-.8-.3-1.4-.4-1.6-.3-1.9m1.1-2.6-.4-2.7m0,0v-.3l-.1-.4v-.3l-.1-.3v-.4l-.1-.3v-.7m0,0-1.2-9.9m0,0-.1-.4v-.3l-.1-.3v-.7l-.1-.3v-.4l-.1-.3m0,0-.5-3.4m1.1,16-1.8-11m0,0-.1-.3v-.6l-.1-.3v-.3l.1-.1v-.1m0,0h.6m0,0,.1.1v.1l.1.1v.2l.1.3v.3l.1.3v.3m1.3,11-1.3-11m1.3,11,.1.6v.9l-.1.1-.1-.1-.1-.4-.1-.5-.1-.6M628.4,338h0l-.2.6v.6l.2.4m21.3-17.9h0l-.2.6v.6l.2.4m-22.4,17-.4-.2-.5-.4m0,0-.3-.5v-.6l.2-.6.4-.5.5-.2.1-.1M648.6,324l-.5-.2-.4-.4m0,0-.3-.5v-.6l.2-.6.4-.5.5-.2h.1m.3-2.8.6.1.8.2.8.3.6.5.6.6m0,0v.1m-.6-.1h.6m-19.2,20.7,2.1-1.6m-2,2,10.8-8.3m-2.1,1.2,2.1-1.6m-2.1,1.6-.2.1-.2.2-.2.2-.2.1-.2.1-.1.1h-.2m-1.7,0h1.7m-1.7,0h0l.2-.2.2-.1.1-.2.2-.2.2-.1m12.4-9.5-12.4,9.5m-14,10.3h.6m6.7-5.2-6.7,5.2m6.7-5.2.2-.1.3-.2.2-.2.2-.1.1-.1.2-.1h.1m1.8,0h-1.8m1.8,0h0l-.1.1-.1.1-.2.1-.2.2-.2.2-.2.1m-6.9-1.2-.5-.4-.5-.2-.6.1-.6.2-.4.5-.2.6.1.6.2.5.5.4.5.2h.6l.6-.3.4-.4.2-.6-.1-.6-.2-.6m-4.6,3.6,2.1,2.8m0,0L652.2,324m.1-3.3-.6-.8m0,0-.6-.6-.6-.5-.8-.3-.8-.2-.8-.1-.8.2-.8.3-.7.4m0,0-21.3,16.3m0,0-.6.6-.5.6-.3.8-.2.8-.1.8.2.9.3.7.4.8m25.9-19.9-.5-.4-.5-.2-.7.1-.5.2-.4.5-.2.6v.6l.3.5.5.4.5.2h.6l.6-.3.4-.4.2-.6-.1-.6-.2-.6m98.1,72.6.1-.6.3-.4.5-.4.5-.1.6.1.4.4.3.4.1.6-.1.5-.3.5-.4.3-.6.1-.5-.1-.5-.3-.3-.5-.1-.5m-13.6,63.7.1.6.4.5.5.4.6.1.6-.1.5-.4.3-.5.1-.6-.1-.6-.3-.5-.5-.3-.6-.1-.6.1-.5.3-.4.5-.1.6m-131.8,0,.1.6.4.5.5.4.6.1.5-.1.6-.4.3-.5.1-.6-.1-.6-.3-.5-.6-.3-.5-.1-.6.1-.5.3-.4.5-.1.6m-21.4-170h9.4m0,7.4h-7.9m-1.5-3.9h0l.2.6.5,1.2.8,2.1M580.9,309h9.4m-7.9-7.4h7.9m-7.9,0-.8,2-.6,1.5v.4m9.3-17.7h.3m-.3,21.2h.3M629,298.4h0l-.4-.7m-38.3-2.5v-7.4m12,7.4h-12m12,0,.5.1.5.1.5.3.5.3.3.5.3.5.1.5.1.5m0,.7V298m0,.7-.1.6-.1.5-.3.5-.3.4-.5.4-.5.3-.5.1-.5.1m-12,0h12m-12,7.4v-7.4m38.3-2.6.4-.6m1-6.9h0l-.2,1-.2,1.3-.1,1.7-.1,1.9v2l.1,1.9.1,1.7.2,1.3.2.9v.1m.3,3.7h0l.2-.2.1-.2m0-20.4-.1-.2-.1-.2h-.1M629,298.4h0v-.9m0,.9v.9m1.3-11.5H602.5m26.5,9.7.1-1.9v-1.9l.2-1.7.1-1.4.2-1.2.2-.9.2-.6.3-.1m-39.7,0h11.9m26.1,9.9-.7-.7-1.6-1-1.8-.7-7.1-2.2-7.3-1.7-19.5-3.6m38,9.9h0l.2-.1h.1l.1-.1m-26.5-9.7,8,1.8,7.4,1.9,7,2.7,1.8,1,1.6,1.2.7,1.1M602.5,309H590.6m38-10h0l.2.1v.1h.1l.1.1M590.6,309l19.5-3.7,7.3-1.6,7.1-2.2,1.8-.7,1.6-1,.7-.8m.4.3.1,1.9v1.9l.2,1.7.1,1.4.2,1.2.2.9.2.5.3.2m-1.3-9.7-.7,1-1.6,1.3-1.8,1-7,2.7-7.4,1.9-8,1.8m0,0h27.8m80-10.3V298m0,.7.1.6.1.5.3.5.4.4.4.4.5.3.5.1.5.1m-3.2-2.9h.4m0-.7h-.4m3.2-2.8-.5.1-.5.1-.5.3-.4.3-.4.5-.3.5-.1.5-.1.5m-26,7.9-.1-.3v-.1h-.1m0-14.2.1-.1.1-.2v-.1m28.4,10.7-.9-.2-.8-.4-.6-.6-.4-.9-.1-.8m0,0h0V298m0,0,.2-.9.4-.8.6-.6.9-.4.7-.1m20.3,6.4h-1.5M708.2,298h0v.7m2.9-3.5-.9.1-.7.4-.7.7-.5.9-.1.7m0,0h-.4m.4.7.2,1,.4.8.7.6,1,.4.6.1m-3.3-2.9h.4M722.6,309h-7.5m7.5-21.2h-7.5m7.5,13.8h-12m0-6.4h12m-38.7,10.3h0m11,0h2.5l4.1.6m9.1-4.5-.5-.1-.5-.1-.5-.3-.4-.4-.4-.4-.3-.5-.1-.5-.1-.6m0,0V298m0,0,.1-.5.1-.5.3-.5.4-.5.4-.3.5-.3.5-.1.5-.1m-9.1-4.5-2.5.4-4.1.2m-11,0h0m31.2-3.5H685.2m-.9,3.1.1-.7.1-.6.1-.6.1-.4.1-.4.1-.2.1-.2h.2m-.9,3.1,7.5-.1,9.7-.1m0,0,13.6-2.9M685.2,309h29.9m0,0-13.6-2.9m0,0-9.7-.1-7.5-.1m.9,3.1H685l-.1-.2-.1-.2-.1-.4-.1-.4-.1-.6-.1-.6-.1-.7m8.1-9.1-.2.1-.4.7-.2.8.2.8.4.7.2.1m30.2-12.2h11.9m-3,7.4h-8.9m8.9,0,1.1-2.1,1.1-1.4.6-.5.2.1m-11.9,3.9v-7.4m0,21.2h11.9m0-3.5h-.3l-.7-.6-.9-1.2-1.1-2.1m1.5,0,.8,2,.6,1.5m-11.8-3.5h8.9m-8.9,7.4v-7.4m-22.1-1.7-.5-.5-.2-.7V298l.3-.6.4-.5m34-5.4v-.2l-.3.1-.7.7-.9,1.1-1.2,2m3.1,0h-3.1m-65.2,24.2h0l-.5-.6-.1-.6m0,0,.1-.6.4-.5.1-.1m0,12.3h0l-.5-.5-.1-.6m0,0,.1-.6.4-.5.1-.1m4,6.8h.4m-4.8-17-.5.3-.4.5-.1.6m0,0,.1.6.4.5.5.4m0,7-.5.4-.4.5-.1.6m0,0,.1.6.4.5.5.3m-16.6-8.4-.4.5-.1.8m0,0,.1.7.4.6m-1.8-1v-.6m18.2,7.5-.2-.1-.5-.3-.4-.5-.1-.6.1-.6.4-.5.5-.4.2-.1m0-6.9h-.2l-.5-.4-.4-.5-.1-.6.1-.6.4-.5.5-.3.2-.1m-21.6,14v3.1m0-19.7v6.3m5.9,5.8.8-.3,1.1-.8.4-.6m4.9,9.3h12.3m-25.4,0h10.2m9.4-15.6.1-.6.4-.5.5-.3.6-.1.5.1.5.3.4.5.1.6-.1.6-.4.5-.5.4-.5.1-.6-.1-.5-.4-.4-.5-.1-.6m0,10,.1-.6.4-.5.5-.4.6-.1.5.1.5.4.4.5.1.6-.1.6-.4.5-.5.3-.5.1-.6-.1-.5-.3-.4-.5-.1-.6M644,314.1v-2.4l-.1-.4V311m-.5-3.8.5,3.8M672,285.6v-1.1l-.1-.2v-.1m-3,0h3m-3.1,23,.4,3.8m0,0,.1.3v1.1l.1.4v1.3m0,0v19.7m0,0h.8m0,0V314m0,0v-1.2l.1-.1v-.1m.1,0h0m0,0h0l.1.2v.2l.1.2v.8m0,0v19.8m0,0h.8m0-19.7v19.7m0-19.7V312l.1-.3v-.6m-2.8-8.5v3.6m0-20.6v8.5m-25.3-8.5v20.6m0-20.6v-1.1l.1-.2v-.1m25.2,1.4H643.4m25.5-1.4h0l-.1.1v.3l-.1.2v.8m-25.2-1.4h25.4m-25.5,23h0v-1m25.3,0v.9l.1.1m57,131.5h.2m0,0v.8l-.3,3.4-.1.7m.2-4.9h-1.3m1,4.5.1-.2.2-3.4v-.9m-6.1,0h1m2.7,8.5h0m-1.6-8.5h-1.1m3.3,0h.6m1.3,8.5v-.7l-.4-3.4-.6-3.4-.3-1m-.4,8.5h-.7m-1.7-8.5h.6m1.1,8.5-.1-.4-.6-3.9-1-4.2m4,8.5h-.3m-1.8-8.5h.3m0,0,.2.8.9,3.4.5,3.4.2.9m-1.6,0h1.3m-1.8-8.5h-1.3m3.1,8.5-.1-.8-.6-3.4-.9-3.4-.2-.9m-1.3,0h0l.1.3,1,3.9.7,4.3m-14.4-8.7-.3-.2-.2-.5-.1-.7v-1.4l.2-.5.2-.5.2-.1m3.4,12.6h.8m3.6,0h.7m-5.1,0h-.9m-2.7-8.5h.9m0,0h0l1.1,3.7,1.6,4.8m6.1,0h-1m-2.6-8.5h.8m1.8,8.5-1.2-4-1.4-4.5m-1,8.5H714m3.6,0h0m-3.5-8.5h.7m0,0h0l1.3,3.7,1.5,4.8m-5.9,0h.6m-2.7-8.5h-1m3.7,8.5h0l-1.5-4.5-1.2-4m9.7,8.5h.9m-3.2-8.5h-.5m0,0h0l1.5,4.2,1.3,4.3m-10.1-8.5.4-.1.5-.3.4-.6.2-.6.1-.7-.2-.7-.3-.6-.4-.4-.5-.2h-.5l-.3.2-.3.5-.2.6-.1.7.1.6.1.7.2.5.4.3.4.1m6.5,0h-.9m-3.1,8.5h-.4m-2.7-8.5h0l.1.4,1.4,3.9,1.6,4.2m-2.8,0-.4-.8-1-2.6m13.3,3.4h-.6m-3.2-8.5h.3m2.9,8.5-.1-.4-1.4-3.9-1.7-4.2m2.8,0h0l.3.8,1.5,3.4,1.3,3.4.3.9m-8.5,0h.2m-1.1-2.6.9,2.6m-.6-8.5h-.3m1.7,4-1.4-4m-3.6,8.5h.8m-2.2,0h1m-2.6-3.6,1.1,2.7.5.9m11.7,0h1.1m-3.8-8.5h-.8m0,0h0l.2.3,1.7,3.9,1.6,4.3m1.5,0h.8m-4.6-8.5h1.1m3.5,8.5-.2-.7-1.4-3.4-1.5-3.4-.4-1m-9.1,8.5h-.4m12.2,0h-.4m-3.8-8.5h.4m3.4,8.5-.3-.8-1.5-3.4-1.6-3.4-.4-.9m.4,0,.3.8,1.7,3.4,1.4,3.4.4.9m-7.2,0h-.2m-1.3-8.5h.2m1.7,4,.1.3.1.1m-.6,4.1h.5m-4.4-8.5h0l.2.3,1.7,3.9,2,4.3m2.3,0h0m-3.8-8.5H713m4.5,8.5-.2-.3-1.8-3.9-1.9-4.3m2.3,8.5h-.3m0,0-.4-.8-1.8-3.4-1.7-3.4-.5-.9m6.2,8.5h-.3m-4.5-8.5h.4m0,0h0l.4.8,1.8,3.4,1.7,3.4.5.9m-1.5,0h1.2m0,0-.4-.7-1.8-3.4-1.8-3.4-.5-1m-1.1,0h1.1m-1.1,0,.4.8,1.7,3.4,1.8,3.4.5.9M692.4,300l-.5-.1-.5-.4-.3-.5-.2-.6.2-.6.3-.6.5-.3.5-.1m8.4,3.2-.4-.1-.5-.4-.4-.5-.1-.6.1-.6.4-.6.5-.3.4-.1m3.4-5.5h.8m0,0,.6.1.5.1.5.3.4.3.4.5.2.5.2.5v.5m0,0v8.5m0-8.5H707m-2,11.4h-.8m3.6-2.9v.6l-.2.5-.2.5-.4.4-.4.4-.5.3-.5.1-.6.1m2-2.9h.8m-8,2.9h4.4m-4.4-14.2h4.4m-1.9,7.1-.1.6-.4.5-.5.4-.6.1-.7-.1-.5-.4-.3-.5-.2-.6.2-.6.3-.6.5-.3.7-.1.6.1.5.3.4.6.1.6m4.7-4.3v8.5m0-8.5-.1-.5-.1-.5-.3-.5-.3-.5-.5-.3-.4-.3-.6-.1-.5-.1m0,14.2.5-.1.6-.1.4-.3.5-.4.3-.4.3-.5.1-.5.1-.6m-16.4-4.2.1-.6.4-.6.5-.3.6-.1.6.1.6.3.3.6.1.6-.1.6-.3.5-.6.4-.6.1-.6-.1-.5-.4-.4-.5-.1-.6m1.5-7.1h7.7m0,2.8h-7.7m7.7-2.8v2.8m0,11.4h-7.7m0-2.9h7.7m0,0v2.9m-7.6-11.4-1.4.3-1.3.7-.9,1.2-.5,1.4v1.4l.5,1.4.9,1.1,1.3.8,1.4.2M684,291.3h4.9m-7,.4,2-.4m0,0h0m5,14.2H684m-.1,0-2-.4m2.1.4h0m2.8-13.8h-4.9m-11.8,2.4,5.9-.6,5.9-1.8m0,13.4-5.7-1.8-6.1-.7m11.8,2.5h4.9m-13.8-11h3.2m0,8.6-3.2-.1m-14.1-2.8V297m.1,4.8-.1-.4v-1.6m14.1,2.8H660.7m12.3,0h0l-.1-.2v-.1l-.1-.2v-.4m-13.9-1.9h12.6m0-2.8H658.9m14.1-2.9h0l-.1.2v.2l-.1.2v.4m-13.6-1H673M658.9,297v-1.6l.1-.4v-.4l.1-.2.1-.2v-.1m16.9,4.3.1-.3.1-.2.2-.3.3-.2.3-.2.4-.2.4-.1h.4l.5-.1.5.1h.4l.4.1.4.2.3.2.3.2.2.3.1.2.1.3-.1.3-.1.2-.2.3-.3.2-.3.2-.4.1-.4.2h-1.8l-.4-.2-.4-.1-.3-.2-.3-.2-.2-.3-.1-.2-.1-.3m15.9,4.2h0m0-8.5-.8.1-.8.2-.7.3-.7.4-.5.6-.5.6-.3.6-.2.8-.1.7.1.7.2.7.3.7.5.6.5.5.7.5.7.3.8.2h.8m.1-8.5h0m0,0v-2.8m-3.2,0h3.2m-3.2,0-2.1.4m0,0-5.2,1.6-5.4.8m0,0-2.5.5-.9.5m0,0-.5.4-.4.5-.3.5-.1.5m0,0v2.8m0,0,.1.5.3.5.4.5.5.4m0,0,1.8.8,1.6.2m0,0,5.3.8,5.3,1.6m0,0,2.1.4m0,0h3.2m0,0v-2.9m-62.2-9.8h0l-.2,1.3-.1,1.5-.1,1.7v1.9l.1,1.7.1,1.6.1,1.2.1.3m-.2-7.9v4.4m0,0v.2M182.4,384.5l-.3-.8-.4-.8-.5-.7m1.2,2.3h0m.6,3.3-.2-.4-.1-.9m2.3-72,2.3.4,1.9,1.1,1.5,1.6.8,2,.1,1.1v.8m-8.7,63.9h.1m-.3-1h0m8.6-9.2.5,3.5m-.5-3.5-.4-1-.6-.8-.8-.5-1-.1-1,.2-.8.5-.6.8-.3,1m6.3-.5h0l-.2.1h-.2l-.1.1h-.1l-.1.1h-.1v.1m-8.6,11.3.3,1.5m-.6-3.5.2,1.1m0,0,.1.9m.2-1.1-.2-1m0,0-.1-.1m-1.4-2,.5.6.4.8.3.8m.2-.2h.1m-.1,0-1.1-2.1m1.3,2.2.2,1m-.3-1.1.1.1m3-9.1-.4,3.5m-1.5-3.8.2.1h.5l.3.1h.5l.2.1h.2m-13.4-4.4h0m8.8,11.4h0m-8.4-10.8,8.4,10.8m0,0,.3-.1m-10.2-67.4,6.9-.1,6.8-.2m0,.1h0m-13.7.2h0m10.2,67.4h0m-8.7-10.7h0v-.1h-.1l-.1-.2-.2-.3m9.1,11.3-8.7-10.7m18.8-50v-.8l-.1-1-.8-2.1-1.5-1.6-1.9-1.1-2.3-.3m0,0-6.8.1h-2.4l-4.5.1m0,0,1.1,56m0,0v.1m0,0,1.1,1.3,8.1,10m0,0,1.1,2.1m0,0,.9-6.9.3-2.4m0,0,.1-.4.6-1.5,1.1-1.2,1.5-.7.3-.1,1.3-.1h.5l1.2.5.2.1.8.9.5,1.2.1,1.1M195.9,486h-1.2l-1.2-.2-.7-.3m1.3-72.3h.1l.1.9m.4,2,.4.8.4.7.5.7m-1.2-2.2h0m-.4,0h0m-1.6,69.4.7.3,1.2.2,1.2.1m-.5,0-2.2-.3-2-.9-1.5-1.6-.9-2-.2-1v-.9m-2.3-53.6-.7-3.4m8.7-8.3-.2-1m.7,3-.3-1.1m0,0-.2-.9m-.2,1.1.3.9m0,0,.1.2m1.5,2-.5-.7-.4-.7-.3-.8m-8.5,9.7.4.9.7.8.8.5,1,.1.9-.3.8-.5.6-.9.2-1m-6.2.9.1-.1.2-.1h.1l.1-.1h.1l.1-.1h.1v-.1m8.2-9.5h-.1m.1,0,1.2,2m-1.3-2v-.1m-2.7,9.2.3-3.5m1.7,3.7h-.5l-.2-.1h-1l-.3-.1m13.7,3.8h0M196,418.3h0m9,10.3-9-10.3m0,0h-.3m0,0h0m9.3,10.3h0l.2.3.2.2v.1m-9.7-10.9,9.3,10.3m-9.6,57.5h0m13.7-1h0m-13.2,1h-.5m.5,0,13.2-1m.1,0h0m-.1,0-6.8.5-6.9.5m-6.8-6.7v.9l.2,1,.9,2,1.5,1.6,2,.9,2.2.3m0,0,6.9-.5h.6l1.7-.2,4.5-.3m0,0-3.7-55.9m0,0h0m0,0-1.2-1.3-8.5-9.6m0,0-1.3-2m0,0-.5,6.9-.2,2.4m0,0-.1.5-.5,1.5-1.1,1.3-1.4.7-.3.1-1.3.2h-.5l-1.2-.4-.2-.2-.9-.8-.5-1.2-.2-1m1.6-27.4-.5.7-.1.8.1.9.5.6.7.5.8.2.8-.2.7-.5.4-.6.2-.9-.2-.8-.4-.7-.7-.4-.8-.2-.8.2-.7.4m-9.2,18.2-2.1,2.1m-6-6,2.1-2.1m-.1,8.1-2-2m0-4-.4.4-.2.5-.2.6v1.1l.2.5.2.5.4.4m2.1-2.3-.3.5-.1.6.1.6.3.5.5.3.6.1.6-.1.5-.3.4-.5.1-.6-.1-.6-.4-.5-.5-.4-.6-.1-.6.1-.5.4m-.1,4.3.4.4.5.2.5.2.6.1.5-.1.6-.2.5-.2.4-.4M171.9,386l.5.3.6.2.6-.2.5-.3.4-.5.1-.6-.1-.6-.4-.5-.5-.3-.6-.2-.6.2-.5.3-.3.5-.1.6.1.6.3.5m3.9-4.4,2.1,2.1m-2.1-2.1-.4-.3-.5-.3-.6-.1-.5-.1-.6.1-.5.1-.5.3-.4.3m-2,2.1,2-2.1m-2,2.1-.4.4-.2.5-.2.5v1.1l.2.5.2.5.4.5m2.1,2-2.1-2m33.2-3.9-.3.5-.1.6.1.6.3.5.5.3.6.2.6-.2.5-.3.4-.5.1-.6-.1-.6-.4-.5-.5-.3-.6-.2-.6.2-.5.3m4.4,3.9.3-.5.3-.5.1-.5.1-.5-.1-.6-.1-.5-.3-.5-.3-.4m0,4-2.1,2m.1-8.1,2,2.1m-8.1,0,2.1-2.1m4,0-.5-.3-.5-.3-.5-.1-.5-.1-.6.1-.5.1-.5.3-.4.3m0,37.6.4.4.5.2.5.2.6.1.5-.1.5-.2.5-.2.5-.4m2-2-2,2m-4,0-2.1-2.1m8.1.1.3-.4.3-.5.1-.5.1-.6-.1-.5-.1-.6-.3-.5-.3-.4m-4.4,3.9.5.3.6.1.6-.1.5-.3.4-.5.1-.6-.1-.6-.4-.5-.5-.4-.6-.1-.6.1-.5.4-.3.5-.1.6.1.6.3.5m2.3-6,2.1,2.1m-4.9-20.6-3.4,3.3m-1.2,7.9,4.6,4.5m-8.1-19.6,2.1-2.2m-15.8,0,2.3,2.4m-8.3,19.4,4.5-4.5m3.6,8.4-2.1,2.1M204.5,400v2l-.4,2-.5,1.9-.8,1.8-1,1.7-1.2,1.6-1.4,1.4-1.6,1.2m10.8-14.8v2.7l-.4,2.8-.7,2.6-1,2.5-1.5,2.4-1.7,2.1-2,1.9-2.2,1.6m-23.5-26,1.2-1.6,1.5-1.4,1.5-1.2,1.7-1,1.3-.6m-11,4.6,1.6-2.3,1.9-2,2.1-1.7,2.4-1.4,1.4-.7m13.4,3.5.6.2,1.7.9,1.7,1.1,1.5,1.3,1.3,1.5,1.1,1.7.9,1.7.7,1.9M194,381.4l1.7.5,2.5,1.2,2.3,1.5,2.1,1.8,1.8,2.1,1.5,2.3,1.2,2.5.8,2.6m-25.1,19.4-.5-.2-1.8-.9-1.6-1.1m4.3,6.4-.4-.1-2.6-1-2.4-1.3-2.2-1.6m.3-5.3-1.1-1.7-.9-1.8-.7-1.8-.4-2-.2-1.9.1-2,.3-2,.5-1.9m.1,18.3-1.7-2.2-1.3-2.4-1-2.6-.6-2.7-.3-2.7.2-2.7.5-2.7.9-2.6m38.1,6-7.1,2.3m-.8-5.2h7.4m0,0,.1.4v.3l.1.4.1.3v.4l.1.4v.3l.1.4m-25.7,11.5-1.1.8m14-3.7,1,3m-18-18,3,1m19.7,7.7-2.9.9m-19.6-3.1-2.5-1.8m21.1-1.2h3.1m-22.6,11.5,1.8-2.5m21.6-3.8v-2l-.1-.7-.1-.6-.2-.6-.2-.7-.2-.6m-18.9,15.2-2.5,1.8-3.5,2.6m2.3-8.1.4.6.4.5.4.5.5.5.4.4.5.4.6.4.5.4m-8,2.3,4.3-6m-2.3,8.1-.3-.3-.2-.2-.3-.3-.3-.2-.2-.3-.3-.3-.2-.2-.2-.3m23-3,.9,2.9,1.4,4.1m-4.5-5.6h0l.5-.3.6-.4.6-.3.5-.4m2.3,7-.4.2-.3.2-.3.1-.3.2-.3.2-.4.1-.3.2-.3.1m-24.7-28.5,7,2.2m-8.3.4.1-.4.2-.3.1-.3.2-.4.2-.3.1-.3.2-.3.2-.3m4.7,6.9-2.5-1.8-3.5-2.5m8.3-.4-.4.6-.3.5-.4.6-.3.5-.3.6-.2.6-.2.7-.2.6M174,383.6l-.4-.1-.6-.2-.6.2-.5.3-.3.5-.1.6.1.6.2.3m31.6-2.3-.4.3m-30.4,33.7h.4m-.7-2.9-.4.3m36.5,1.1V384.8m0,0-.1-.8-.2-.8-.4-.7-.5-.7-.7-.5-.7-.4-.8-.2-.8-.1m-24.3,0H173m31.2,0H193.6m-20.6,0-.8.1-.8.2-.8.4-.6.5-.5.7-.4.7-.3.8-.1.8m0,15.7V416m0-31.2v15.5m0,15.7.1.9.3.8.4.7.5.6.6.6.8.4.8.2.8.1m24.8,0h6.4m-31.2,0h10.5m20.7,0,.8-.1.8-.2.7-.4.7-.6.5-.6.4-.7.2-.8.1-.9m334.5-8.7-.6-.1-.5-.3-.3-.6-.2-.5.2-.6.3-.6.5-.3.6-.1.6.1.5.3.3.6.2.6-.2.5-.3.6-.5.3-.6.1m32.6-16.8h7.1m-9.9,0h2.8m-36.8,0V399m34-8.5v2.2m-34-2.2h34m-34,8.5h33.4m0,1.4H538.7m51-9.9h-7.1m-37.9,15.3-.2.6-.3.6-.6.4-.7.1-.7-.1-.5-.4-.4-.6-.2-.6.2-.7.4-.6.5-.4.7-.1.7.1.6.4.3.6.2.7m14.8,8.8h11.8m11.3-24.1v1.1m-11.8,48.2-14.7-18.3m22.2,6.9v8.7m-18.8-22.5-1.2.2-1.1.5-.9.7-.7,1-.3,1.2-.1,1.1.3,1.2.6,1m33.6-29.9v-1.1m0,70.9V428.5m-51-17.4L579,461.4m-8.2-21.6.9.8,1.2.6,1.3.1,1.3-.2,1.1-.6,1-1,.5-1.1.2-1.3m-39.6-36.7v10.7m33.3,3.5h-.7m7.7,46.8h10.7M403.3,424.2h4.2M271.8,538.3V534m100-120.4V411m-7.1,2.6V411m7.1,0v-3.5m-7.1,0V411m0,0h7.1m0-6.8v3.3m-7.1-3.3v3.3m7.1,0h-7.1m7.1-3.3v-.9m-7.1,0h0v.9m0,0h7.1m0-3.8h-1.4m0,2.9h1.4m0,0v-2.9m-5.7,2.9h4.3m0-2.9v2.9m-4.3-2.9h4.3m-4.3,0h-1.4m0,0v2.9m0,0h1.4m0,0v-2.9m-1.4-3.7v-6.2m7.1,6.2v-6.2m-7.1,7.1h0v-.9m7.1,0v.9m-7.1-.9h7.1m-1.4.9h1.4m0,2.8h-1.4m1.4-2.8v2.8m-7.1-2.8h1.4m0,2.8h-1.4m0,0v-2.8m1.4,0h4.3m-4.3,0v2.8m0,0h4.3m0,0v-2.8m24.4-2.2v-6.3m21.2,6.3v-6.3m-21.2,7.1h0v-.8m21.2,0v.8m-21.2-.8H416m0,5h-1.4m0-4.2H416m0,0v4.2m-19.8,0h18.4m-18.4-4.2h18.4m0,4.2v-4.2m-18.4,4.2h-1.4m1.4-4.2v4.2m-1.4-4.2h1.4m-1.4,4.2v-4.2M416,411.8v1.8m-7.4,2.8h4.6m0,0h.5l.5-.2.4-.2.4-.3.4-.3.3-.4.2-.5.1-.4v-.5m-21.2-1.8v1.8m2.8,2.8h4.6m-7.4-2.8v.5l.2.6.3.5.3.4.4.3.5.3.6.2h.5m4.6,0h1.4m-1.4-4.6v4.6m5,0h1.4m0,0v-4.6m-5,4.1v.5m3.6,0h0v-.5m-3.6.5h3.6m8.8-4.6v-5.7m-7.4,5.7H416m-21.2-5.7v5.7m0,0h7.4m-7.4-7.6v1.9m7.4,0h-7.4m21.2-1.9v1.9m0,0h-7.4m-5,6V412h-.1l-.1-.1h-.2l-.2-.1h-.8m0-5.7v5.7m6.4,0h-.8l-.2.1h-.2l-.1.1h-.1v.1m1.4-.3v-5.7m7.4-1.9v-.9m-7.4.9H416m-7.4,0v-.9m-13.8,0h0v.9m0,0h7.4m0-.9h0v.9m1.4,2.7v-.1l-.1-.2-.1-.1-.2-.1-.2-.1-.2-.1-.3-.1h-.3m1.4-1.4h0l-.1-.2-.1-.1-.2-.1-.2-.1h-.8m0,0v1.9m6.4-1.9h-.8l-.2.1-.2.1-.1.1-.1.1v.1m1.4,1.4h-.3l-.2.1-.3.1-.2.1-.2.1-.1.1-.1.2v.1m1.4-.8v-1.9m-5,1.6v10.1m3.6-10.1v10.1m0,0h-3.6m11-12.6H416m0-2.9h-1.4m1.4,2.9v-2.9m-12.4,4.3v-.3l-.1-.3-.1-.2-.2-.2-.2-.2-.2-.1-.3-.1h-.3m-6,0h6m6.4,0h6m-11,1.4v.2m3.6-.2v.2m1.4-1.6h-.3l-.2.1-.3.1-.2.2-.2.2-.1.2-.1.3v.3m7.4-4.3v2.9m-18.4-2.9h18.4m-19.8,2.9h1.4m0-2.9h-1.4m0,0v2.9m1.4,0v-2.9m7.4,4.5v.9m0,0h3.6m0,0v-.9m0,0h-3.6M186.9,419.1h-.2l-.6-.4-.4-.6-.1-.7.2-.7.3-.5.6-.4.2-.1m3.4-34,.2.1.5.4.4.6.1.7-.1.6-.4.6-.5.4-.2.1m3.8,32.3v-4.3m-9.4,4.2.1.7.4.6.5.4.7.1.6-.1.6-.4.4-.6.1-.7-.1-.6-.4-.6-.5-.4-.7-.1-.6.1-.6.4-.4.5-.1.7m-1.9-4.3v4.3m0,0v1l.3.9.4.9.6.8.6.8.8.5.9.5,1,.2,1,.1,1-.1.9-.2.9-.4.8-.6.7-.7.6-.8.4-.9.3-.9.1-1m-11-34.1-.1,4.2m11.4-4.1-.1-1-.2-1-.4-.9-.6-.8-.7-.7-.8-.6-.9-.4-.9-.2-1-.1h-1l-1,.3-.9.4-.8.6-.7.6-.6.9-.4.8-.2,1-.1,1m9.4.1-.2-.7-.3-.6-.6-.4-.6-.1-.7.1-.6.4-.3.6-.2.6.2.7.3.6.6.4.6.1.7-.1.5-.4.4-.6.2-.6m1.9,4.2v-4.2m0,7v-.6l-.1-.4m-11.3-.2v-1.7m11.4.1v.7l-.1.6v.5M183,387.6l11.4.1m-11.7,22.7.1.1v.9m11.3.2v1.6m-11.3-.1v-1.7m11.3,1.8-11.3-.1m0-22.1-.1.4-.2.4-.1.3-.2.4-.2.3-.2.3-.2.3-.3.3m13.1,16.1.1-.3.1-.4.2-.3.2-.4.2-.3.2-.3.2-.3.3-.3m.1-13.4h-.1v-.1l-.1-.1h-.1v-.1l-.1-.1v-.1h-.1m-14.3,13.8h0l.2.2.1.1v.1h.1v.1m2.7-7.2.3,1.5.7,1.2,1.1,1,1.4.5h1.5l1.4-.5,1.1-.9.8-1.3.2-1.4-.2-1.5-.7-1.3-1.2-.9-1.3-.5-1.5-.1-1.4.5-1.2,1-.7,1.2-.3,1.5m-3.1,6.7-1.1-1.5-.8-1.7-.5-1.7-.1-1.9.1-1.8.6-1.7.8-1.7,1.1-1.4m14.7.1,1.1,1.5.8,1.6.4,1.8.2,1.8-.2,1.8-.5,1.8-.8,1.6-1.1,1.5m-13.2,3.2v-.3l-.2-.7-.2-.7-.5-.8-.2-.3m12.5,4-2.2-.4-2.8-.3-3-.3-3.4-.2m11.4,1.1v.1m.3-1.8-.2.9-.1.8m-12.5-3.9,3.7.3,3.4.5,3.1.7,2.6.7m0-19.3.1.3.1.6.3.8.4.8.2.3m-12.5-4,2.3.4,2.7.3,3.1.3,3.3.2M183,389.4v-.1m-.2,1.7.2-.9v-.7m12.5,3.9-3.7-.4-3.4-.5-3-.6-2.6-.8m633.9,56.9h1.6M752.7,416h87.8m-16.2,31.8h0l.7-.5.5-.6m-67.9,7.6.2.8.5.7.6.5.9.1.8-.1.7-.5.4-.7.2-.8m-4.3-31.2v31.2m4.3-31.2-.2-.8-.4-.7-.7-.4-.8-.2-.9.2-.6.4-.5.7-.2.8m4.3,31.2V423.1m63.7-.6-.1-.2-.5-.7-.6-.4-.1-.1m-56,.4-.1.1-.5.7v.2m6.5,2.7h1.6m-6.1,27-.8.1-.7.5-.5.7-.1.8.1.8.5.7.7.5.8.1m21.2-4.2H769.7m21.2,4.2.9-.1.6-.5.5-.7.2-.8-.2-.8-.5-.7-.6-.5-.9-.1m-21.2,4.2h21.2m40.4-2.1.2.8.5.7.6.5.9.1.8-.1.7-.5.4-.7.2-.8m-4.3-31.2v31.2m4.3-31.2-.2-.8-.4-.7-.7-.4-.8-.2-.9.2-.6.4-.5.7-.2.8m4.3,31.2V423.1m-67.8,23.8.4.4m55.3,9.1.9-.1.6-.5.5-.7.2-.8-.2-.8-.5-.7-.6-.5-.9-.1m-11.3,4.2h11.3m-21.2,0h0m0-4.2-.8.1-.7.5-.5.7-.1.8.1.8.5.7.7.5.8.1m21.2-4.2H802.3m-49.6,9.2V416m49.6,45.4H752.7m87.8,0H812.2M840.5,416v45.4m-78.6-38.3-.2-.8-.4-.7-.7-.4-.8-.2-.9.2-.6.4-.5.7-.2.8m-4.9-7.1h87.8m-87.8,45.4V416m4.9,7.1v31.2m65.9,2.1.9-.1.6-.5.5-.7.2-.8-.2-.8-.5-.7-.6-.5-.9-.1m17-36.2v45.4m-82.9-7.1.2.8.5.7.6.5.9.1.8-.1.7-.5.4-.7.2-.8m5.8-7.5.5.6.1.1m57.2-25v-.1l-.5-.6-.6-.5h-.1m-62.4,33V423.1m69.4,31.2.2.8.5.7.6.5.9.1.8-.1.7-.5.4-.7.2-.8m-4.3-31.2v31.2m4.3-31.2-.2-.8-.4-.7-.7-.4-.8-.2-.9.2-.6.4-.5.7-.2.8m4.3,31.2V423.1m-65.9,29.1-.8.1-.7.5-.5.7-.1.8.1.8.5.7.7.5.8.1m21.2-4.2H769.7m21.2,4.2.9-.1.6-.5.5-.7.2-.8-.2-.8-.5-.7-.6-.5-.9-.1m-21.2,4.2h21.2m21.3,0h11.3m-21.2,0h0m0-4.2-.8.1-.7.5-.5.7-.1.8.1.8.5.7.7.5.8.1m21.2-4.2H802.3m0,9.2H752.7m87.8,0H812.2m-59.5-46.8h85m0,0V416m-46.3-16.8h0m0-.1h0m-1.8.1h0m0-.1h0m-1.8.1h0m0-.1h0m-1.8.1h0m0-.1h0m-1.8.1h0m0-.1h0m-1.8.1h0m0-.1h0m-7.2.1h0m0-.1h0m-1.8.1h0m0-.1h0m-1.8.1h0m0-.1h0m-1.8.1h0m0-.1h0m-1.8.1h0m0-.1h0m25.5-1.1h0m0,0h0m0,1.1h0m0-1.1h0m0,0h0m0,1.1h0M764.9,398h1.8m26.8,1.1h0m0-1.1h0m0,0h0m0,0h0m0,0h0m0,1.1h0M758.9,398h0m-.1,0h0m.1,0h0m-.1,0h0m34.7,0h0m0,0h0m0,0h0m0,0h0m0,1.1h0m0,0h0m0,0h0m0,0h0m0-1.1h0m0,0h0m0,0h0m0,0h0m0,0h0m0,0h0m0,1.1h0m.1-1.1h0m0,0h0m0,1.1h0m0,0h0m0-1.1h0m0,0h0m0,0h0m0,0h0m0,1.1h0m0,0h0m0,0h0m0-1.1h0m0,0h0m0,0h0m0,0h0m-34.7,0h0m0,0h0m0,0h0m0,0h0m34.7,1.1h0m0,0h0m0-1.1h0m0,0h0m0,0h0m0,0h0m0,1.1h0m0-1.1h0m0,0h0m0,1.1h0m0-1.1h0m0,0h0m0,0h.6m-.6,1.1h0m0-1.1h0m0,0h0m0,0h0m0,1.1h0m.6.1h0m0-1.2h0m0,0h0m0,1.2h0m.1,0V398m-.1,0h0m-1.4,0v-2.7m-25.2-.4h0m-.4.4v-.1l.1-.1V395h.1l.1-.1h.1m-.3,2.3v-1.9m-.1,0h0m0,1.9v-1.9m.1,0v-.1h.1v-.1l.1-.1.1-.1h.1m-.4.4h25.5m0,0v-.2l-.1-.1h-.1v-.1h-.2m-24.7,0h24.7M758.9,398h0m0,0h0m6,0h0m-1,0h1m-4.6,0h2.8m-4.1,0h.5m-.5,0h0m33.8,1.1h1.5m-1.5-1.1h1.5m0,1.1V398m-2.5,0h0m-.8,1.1h.5M791,398h.5m-1.5,0h.7m-1.5,1.1h.5m-.5-1.1h.5m-1.5,0h0m-.8,1.1h.5m-.5-1.1h.5m-1.5,0h.7m-1.5,1.1h.5m-.5-1.1h.5m-1.5,0h0m-.8,1.1h.5m-.5-1.1h.5m8.4,0h0m.1,1.2V398m-10,0h.7m8,0h.3m0,1.2V398m-.3,0h0m0,1.2V398m0,0h0m0,1.1V398m0,1.1h0m-9.5,0h.5M782,398h.5m8.2,0h0m0,1.2V398m0,0h.3m0,1.2V398m-.3,1.2V398m-9.7,0h0m8.7,0h.3m0,1.2V398m-.3,0h0m0,1.2V398m0,0h0m0,1.1V398m0,1.1h0m-9.5,0h.5m-.5-1.1h.5m8.4,0h0m.1,1.2V398m-10,0h.7m8,0h.3m0,1.2V398m-.3,0h0m0,1.2V398m0,0h0m0,1.1V398m0,1.1h0m-9.5,0h.5m-.5-1.1h.5m8.2,0h0m0,1.2V398m0,0h.3m0,1.2V398m-.3,1.2V398m-9.7,0h0m8.7,0h0m0,0h0m0,1.1V398m0,1.1h0m0-1.1h.3m0,1.2V398m-.3,1.2V398m-9.5,1.1h.5m-.5-1.1h.5m8.4,0h0m.1,1.2V398m-10,0h.7m8,0h0m0,0h0m0,1.1V398m0,1.1h0m0-1.1h.3m0,1.2V398m-.3,1.2V398m-9.5,1.1h.5m-.5-1.1h.5m8.2,0h0m0,1.2V398m0,0h.3m0,1.2V398m-.3,1.2V398m-9.7,0h0m8.7,0h.3m0,1.2V398m-.3,0h0m0,1.2V398m0,0h0m0,1.1V398m0,1.1h0m-9.5,0h.5M773,398h.5m8.4,0h0m.1,1.2V398m-10,0h.7m8,0h0m0,0h0m0,1.1V398m0,1.1h0m0-1.1h.3m0,1.2V398m-.3,1.2V398m-9.5,1.1h.5m-.5-1.1h.5m8.2,0h0m0,1.2V398m0,0h.3m0,1.2V398m-.3,1.2V398m-9.7,0h0m8.7,0h0m0,0h0m0,1.1V398m0,1.1h0m.3.1V398m-.3,0h.3m-.3,1.2V398m-9.5,1.1h.5m-.5-1.1h.5m8.4,0h0m.1,1.2V398m-10,0h.7m8,0h0m0,0h0m0,1.1V398m0,1.1h0m.3.1V398m-.3,0h.3m-.3,1.2V398m-.8,0h.3m0,1.2V398m-.3,0h0m0,1.2V398m0,1.2V398m-.7,1.2V398m-.3,0h.3m-.3,1.2V398m0,0h0m0,0h0m0,1.1V398m0,1.1h0m-.6-1.1h0m.1,1.2V398m-1,1.2V398m-.3,0h.3m-.3,1.2V398m0,0h0m0,0h0m0,1.1V398m0,1.1h0m-.8-1.1h0m0,1.2V398m0,0h.3m0,1.2V398m-.3,1.2V398m-1,0h0m0,0h0m0,1.1V398m0,1.1h0m0-1.1h.3m0,1.2V398m-.3,1.2V398m-.6,0h0m.1,1.2V398m-1.3,0h0m0,0h0m0,1.1V398m0,1.1h0m0-1.1h.3m0,1.2V398m-.3,1.2V398m-.8,0h0m0,1.2V398m0,0h.3m0,1.2V398m-.3,1.2V398m-1,0h0m0,0h0m0,1.1h0m.3.1V398m-.3,0h.3m-.3,1.2V398M758,399.1h0m0-1.1h0m0,1.1V398m10.1,1.1V398m-.6,0h.6m-4.2,0h2.8m-6.4,0h2.8m-5,0h1.4m-1.4,1.1V398m9.4,1.1h.6m-4.2,0h2.8m-6.4,0h2.8m-5,0h1.4m67,.1H758.2m68.3,2.2H758.2m68.3-2.2v2.2m-68.3-2.2H758m.1,2.2h0m.1,0h0m0-2.2v2.2m61.5-3.5v.5m0-.7h0v.2m0-1.1v.9m0-1.4h0v.5m0-.5h0m0,.7v-.7m0,.7h0m0-1h0m0,0h0m0,0h0m-.4,3.2h0V399m0,0v.2m.4-2.4h0m0-.4h0m6.9,3.1h0m0,0h0m0,0h0v-.1h-.1v-.1m0,0v.1l.1.1m-6.9-3.5h0m0,.4h0m0,0h0m0-.4v.4m0,.3v-.3m-.4,0h.4m0-.4h0m-.4.4v-.2l.1-.1.1-.1h.2m0,0h-.2l-.1.1v.1h-.1v.2m.4.9v-.6m0,0h-.4m.4,0h0m0-.6v.3m0,0v.3m0-.3v.3m0-.3v-.3m0,.3h0m0-.4h0v.1m7.1,3h0l.2.1v.1m0,0-.3.2m-.2-.2.3-.2m0,0-.1-.2m-.2.4v.1h.1v.1m0,0h0m.1,0h0l-.1-.1h-.1v-.1m0,0h0m.2-.4h0l-.1-.1h-.2m-6.6.2h0m-.5.2h0V399m0,0v.2m.4-.2h0m0,0h-.4m.4,0v-.9m0,0h-.4m.4,0v-.8m0,0h-.4m0,1.7h0m0,0v-.9m0,0v-.8m0,0h0m0,0v-.6m0,0v-.3m0,0h0m0,0v.3m0,0v.6m0,0h0m0,0h0v.8m0,0v.9m0,0h0m0,0v-.4m0,0h0m0,0v.4m7.1,0h0v.2m.6-3.3h0l-.1.1v.1h-.1m-.1-.5.3.3m-.3-.3h0m-.1,0h0l-.1.1v.1h-.1m0,0-.1.2m.2-.2h0l.1-.1.1-.1m0,.6.1-.1m0,0-.3-.3m-.1.2.1-.2m-.1.6h.2v-.1h.1v-.1m-.3-.2.3.2m-.3-.2h0m0,0h0m-.1,0h0m-6.6.4V396m0,.4h0m0-.4h0m6.7,3v-.8m-6.7-.3v.5m0,.1v.3m0-.6v.6m0,0h0l.1.1m6.6-2.1h0m0,.9h0m0,0h0m0,0h0m0,0h0v.5m-6.7-.3v.3m0-.3h0v-.2m0-.9v.9m0,0h0m0,.5h0v-.5m0-.9h0m0-.8v.4m0,.4v-.4m6.7.4v.9m0-.9h0m0,0h0m-6.7,0v.9m0-.9V396m6.7,0h0v.8m0-.8h0m0,0h-6.7m7.3,1.4v-.3m-.2-.3h0l.1.1h.1v.2m-.5-.3h.3m.2.3h-.3m.3.3h0v.2h-.1v.1h-.1m-.1-.3h.3m-.2.3h-.3m-.1,0h0m.1,0h0l.1-.1.1-.1v-.1m0,0v-.3m0,0v-.2h-.1v-.1h-.1m0,0h0m-.1.9v-.9m-5-.7h2.5m1.6.8v2.3m-5.7-2.3v2.3m0-2.3v2.3m5.7-2.3h-5.7m5.3-.4h.2v.1h.1v.1l.1.1v.1m-5.3-.4h4.9m-5.3.4v-.2l.1-.1.1-.1h.1m-.3.4h0m.4-.4H820l-.1.1v.1h-.1v.2m.3-.4h0m-22.9.1h0l-.2.1-.1.1v.1m.3-.3h0m8.3.3-.1-.1v-.1h-.1l-.1-.1m-8,0h8m-8.3.3v-.1h.1v-.1h.1v-.1h.1m-.5,2.4h0v.1h.1l.1.1h.1m8.4,0h0l.2-.1V399h.1m-8.7.2h0l-.2-.1-.1-.1m.2-2.1h0m0,0-.3,1.4m8.9-1.4.3,1.4m-.3-1.4h-8.6m0,0-.3,1.4m9.1.7.1-.7m-1,0h1m-2.3,0h.6m-2.6,0h1.2m-2.8,0h1m-2.6,0h.8m-2.5,0h1m-.9.7-.1-.7m.1.7h0m0,0-.1-.7m0,0h0m8.2-.4h0v.1m-.7-.1h.7m-3.3,0h0v.1m-.6-.1h.6m-3.2,0h0v.1m-.7-.1h.7m6.5.1v.7m0-.7h-.7m-2.6,0v.7m0-.7h-.6m-2.6.7V398m0,0h-.7m7.2.7h0m-.6,0h.6m-3.3,0h0m-.6,0h.6m-3.2,0h0m-.7,0h.7m6.5.1v.4m0-.5v.1m0-.1h-.6m.6.1h-.6m0,.3-.1-.7m.1.7h0m0,.1h0m0-.4v.4m0-.5v.1m0-.1h0m-.1-.7.1.7m-.1-.7v-.1m0,0h0m0,.4v-.4m0,.4h0m0,0h0v.1m-3.2.7v-.7m0,.7h0m0,.1h0m0-.5h0m0-.7v.7m0-.7v-.1m0,0h0m0,.4v-.4m0,.4h0m0,0h0v.1m.6.3v.1m0-.1h-.6m0,0v.1m0,0v.4m.6-.4v.4m0-.4h-.6m-3.3.3h0m0-.7v.7m0,0h0m0-.4h0m0,0V398m0,0v-.1m0,0h0m0,0v.4m0,0h0m0,0h0v.1m.7.4v-.1m0,0h-.7m0,.1v-.1m.7.5v-.4m-.7,0h.7m-.7.4v-.4m-38.2,14.7h.2m-.3-.8.1.8m0,0-.1-.8m.1.8h0m.1-.8h-.2m0,0h0m0,0v-7.8m0,7.8v-7.8m0-6.9v-.1m0,1.3h0m0-1.2v-.1m0,1.3h0m.3-2h-.2m-.1.7h.2m-.2,0,.1-.7m-.1.7h0m0,0,.1-.7m0,0h0m-1.4,4.2h0m-.1,3.5h.2m0-2.8v-.7m0,0h0m1.5,12.1h.6m0,0,.1-.8m-.8,0,.1.8m0,0-.1-.8m.1.8h0m-.1-.8h0m0,0v-7.8m.8,7.8h-.8m.8-7.8v7.8m-.8,0v-7.8m.8-7v1.3m-.8,0v-1.3m0,1.3v-1.3m.7-.7.1.7m-.1-.7h-.6m-.1.7h.8m-.8,0,.1-.7m-.1.7h0m0,0,.1-.7m0,0h0m-1.5,7.7h0m0-2.8h0m0,2.8v-2.8m3,2.8h.6m0,0v-2.8m0,0v-.7m-3,3.5h2.4m0-3.5v3.5m-3-3.5h0m0,0v.7m0,0v2.8m0,0h.6m0,0v-3.5m33,9.8v-6.3m0,6.3v-6.3m.3,8.6-.1-.8m.1.8h0m-.1-.8.1.8m0,0h.6m0,0,.1-.8m-.8,0h0m0,0v-7.8m.8,7.8h-.8m.8-7.8v7.8m-.8,0v-7.8m0-5.7v-1.3m0,1.3v-1.3m.8,0v1.3m-.1-2,.1.7m-.1-.7H792m-.1.7h.8m-.8,0,.1-.7m-.1.7h0m0,0,.1-.7m0,0h0m1.5,7.7h.6m0,0v-2.8m0,0v-.7m-3,3.5h2.4m0-3.5v3.5m-3-3.5v.7m0,0v2.8m0,0h.6m0,0v-3.5m4.2,9.4v-5.9m0,5.9v-5.9m0-5.7v-1.3m0,1.3v-1.3m.3-.7h-.2m-.1.7h.2m-.2,0,.1-.7m-.1.7h0m0,0,.1-.7m0,0h0M763,413.5h.2m-.3-.8.1.8m0,0-.1-.8m.1.8h0m-.1-.8h0m0,0v-7.8m.2,7.8h-.2m0,0v-7.8m0-6.9v-.1m0,1.3h0m0-1.2v-.1m0,1.3h0m0-1.3.1-.7m-.1.7h0m.1-.7h0m.2,0H763m-.1.7.1-.7m-.1.7h.2m32.5,15.6h.6m0,0,.1-.8m-.8,0,.1.8m0,0-.1-.8m.1.8h0m.7-.8h-.8m.8-7.8v7.8m-.8,0h0m0,0v-7.8m0,7.8v-7.8m.8-7v1.3m-.8,0v-1.3m0,1.3v-1.3m0,0,.1-.7m-.1.7h0m.1-.7h0m.6,0,.1.7m-.1-.7h-.6m-.1.7.1-.7m-.1.7h.8m.8,7h.6m0,0v-2.8m0,0v-.7m-3,3.5h2.4m0-3.5v3.5m-3-3.5v.7m0,0v2.8m0,0h.6m0,0v-3.5m-31.5,12.1h.6m0,0,.1-.8m-.8,0,.1.8m0,0-.1-.8m.1.8h0m.7-.8h-.8m.8-7.8v7.8m-.8,0h0m0,0v-7.8m0,7.8v-7.8m0-5.7v-1.3m0,1.3v-1.3m.8,0v1.3m-.1-2,.1.7m-.1-.7h-.6m-.1.7h.8m-.8,0,.1-.7m-.1.7h0m0,0,.1-.7m0,0h0m1.5,7.7h.6m0,0v-2.8m0,0v-.7m-3,3.5h2.4m0-3.5v3.5m-3-3.5v.7m0,0v2.8m0,0h.6m0,0v-3.5m36.6,9.4v-5.9m0,5.9v-5.9m-32.3,8.6-.1-.8m.1.8h0m-.1-.8.1.8m0,0h.2m-.1-.8h-.2m0,0h0m0,0v-7.8m0,7.8v-7.8m0-6.9v-.1m0,1.3h0m0-1.2v-.1m0,1.3h0m.3-2h-.2m-.1.7h.2m-.2,0,.1-.7m-.1.7h0m0,0,.1-.7m0,0h0m32.6,16.3h.6m0,0,.1-.8m-.8,0,.1.8m0,0-.1-.8m.1.8h0m-.1-.8h0m0,0v-7.8m.8,7.8h-.8m.8-7.8v7.8m-.8,0v-7.8m0-5.7v-1.3m0,1.3v-1.3m.8,0v1.3m-.8-1.3.1-.7m-.1.7h0m.1-.7h0m.6,0,.1.7m-.1-.7h-.6m-.1.7.1-.7m-.1.7h.8m.8,7h.6m0,0v-2.8m0,0v-.7m-3,3.5h2.4m0-3.5v3.5m-3-3.5v.7m0,0v2.8m0,0h.6m0,0v-3.5m-31.5,12.1h.6m0,0,.1-.8m-.8,0,.1.8m0,0-.1-.8m.1.8h0m-.1-.8h0m0,0v-7.8m.8,7.8h-.8m.8-7.8v7.8m-.8,0v-7.8m.8-7v1.3m-.8,0v-1.3m0,1.3v-1.3m.7-.7.1.7m-.1-.7h-.6m-.1.7h.8m-.8,0,.1-.7m-.1.7h0m0,0,.1-.7m0,0h0m1.5,7.7h.6m0,0v-2.8m0,0v-.7m-3,3.5h2.4m0-3.5v3.5m-3-3.5v.7m0,0v2.8m0,0h.6m0,0v-3.5m36.6,9.4v-5.9m0,5.9v-5.9m-32.1,8.6h.6m0,0,.1-.8m-.8,0,.1.8m0,0-.1-.8m.1.8h0m.7-.8h-.8m.8-7.8v7.8m-.8,0h0m0,0v-7.8m0,7.8v-7.8m.8-7v1.3m-.8,0v-1.3m0,1.3v-1.3m.7-.7.1.7m-.1-.7h-.6m-.1.7h.8m-.8,0,.1-.7m-.1.7h0m0,0,.1-.7m0,0h0m1.5,7.7h.6m0,0v-2.8m0,0v-.7m-3,3.5h2.4m0-3.5v3.5m-3-3.5v.7m0,0v2.8m0,0h.6m0,0v-3.5m33.3,12.1h.6m0,0,.1-.8m-.8,0,.1.8m0,0-.1-.8m.1.8h0m.7-.8h-.8m.8-7.8v7.8m-.8,0h0m0,0v-7.8m0,7.8v-7.8m0-5.7v-1.3m0,1.3v-1.3m.8,0v1.3m-.1-2,.1.7m-.1-.7h-.6m-.1.7h.8m-.8,0,.1-.7m-.1.7h0m0,0,.1-.7m0,0h0m1.5,7.7h.6m0,0v-2.8m0,0v-.7m-3,3.5h2.4m0-3.5v3.5m-3-3.5v.7m0,0v2.8m0,0h.6m0,0v-3.5m-31.7,12.1h.2m-.3-.8.1.8m0,0-.1-.8m.1.8h0m-.1-.8h0m0,0v-7.8m.2,7.8h-.2m0,0v-7.8m36.3,8.6h.6m0,0,.1-.8m-.8,0,.1.8m0,0-.1-.8m.1.8h0m.7-.8h-.8m.8-7.8v7.8m-.8,0h0m0,0v-7.8m0,7.8v-7.8m.8-7v1.3m-.8,0v-1.3m0,1.3v-1.3m0,0,.1-.7m-.1.7h0m.1-.7h0m.6,0,.1.7m-.1-.7h-.6m-.1.7.1-.7m-.1.7h.8m.8,7h.6m0,0v-2.8m0,0v-.7m-3,3.5h2.4m0-3.5v3.5m-3-3.5v.7m0,0v2.8m0,0h.6m0,0v-3.5m-31.7,12.1-.1-.8m.1.8h0m-.1-.8.1.8m0,0h.2m-.1-.8h-.2m0,0h0m0,0v-7.8m0,7.8v-7.8m.3,8.6h.6m0,0,.1-.8m-.8,0,.1.8m0,0-.1-.8m.1.8h0m-.1-.8h0m0,0v-7.8m.8,7.8h-.8m.8-7.8v7.8m-.8,0v-7.8m0-5.7v-1.3m0,1.3v-1.3m.8,0v1.3m-.8-1.3.1-.7m-.1.7h0m.1-.7h0m.6,0,.1.7m-.1-.7H774m-.1.7.1-.7m-.1.7h.8m.8,7h.6m0,0v-2.8m0,0v-.7m-3,3.5h2.4m0-3.5v3.5m-3-3.5v.7m0,0v2.8m0,0h.6m0,0v-3.5m33,9.8v-6.3m0,6.3v-6.3m0-5.7v-1.3m0,1.3v-1.3m0,0,.1-.7m-.1.7h0m.1-.7h0m.2,0h-.2m-.1.7.1-.7m-.1.7h.2m-28.7,15.6-.1-.8m.1.8h0m-.1-.8.1.8m0,0h.6m0,0,.1-.8m0,0h-.8m.8-7.8v7.8m-.8,0h0m0,0v-7.8m0,7.8v-7.8m0-5.7v-1.3m0,1.3v-1.3m.8,0v1.3m-.8-1.3.1-.7m-.1.7h0m.1-.7h0m.6,0,.1.7m-.1-.7h-.6m-.1.7.1-.7m-.1.7h.8m.8,7h.6m0,0v-2.8m0,0v-.7m-3,3.5h2.4m0-3.5v3.5m-3-3.5v.7m0,0v2.8m0,0h.6m0,0v-3.5m.7,12.1-.1-.8m.1.8h0m-.1-.8.1.8m0,0h.2m-.1-.8h-.2m0,0h0m0,0v-7.8m0,7.8v-7.8m32.4,6.3v-6.3m0,6.3v-6.3m0-5.7v-1.3m0,1.3v-1.3m0,0,.1-.7m-.1.7h0m.1-.7h0m.2,0h-.2m-.1.7.1-.7m-.1.7h.2m.1,15.6h.6m0,0,.1-.8m-.8,0,.1.8m0,0-.1-.8m.1.8h0m-.1-.8h0m0,0v-7.8m.8,7.8h-.8m.8-7.8v7.8m-.8,0v-7.8m0-5.7v-1.3m0,1.3v-1.3m.8,0v1.3m-.8-1.3.1-.7m-.1.7h0m.1-.7h0m.6,0,.1.7m-.1-.7H810m-.1.7.1-.7m-.1.7h.8m.8,7h.6m0,0v-2.8m0,0v-.7m-3,3.5h2.4m0-3.5v3.5m-3-3.5v.7m0,0v2.8m0,0h.6m0,0v-3.5m-27.9,12.1h.6m0,0,.1-.8m-.8,0,.1.8m0,0-.1-.8m.1.8h0m.7-.8h-.8m.8-7.8v7.8m-.8,0h0m0,0v-7.8m0,7.8v-7.8m.8-7v1.3m-.8,0v-1.3m0,1.3v-1.3m0,0,.1-.7m-.1.7h0m.1-.7h0m.6,0,.1.7m-.1-.7h-.6m-.1.7.1-.7m-.1.7h.8m.8,7h.6m0,0v-2.8m0,0v-.7m-3,3.5h2.4m0-3.5v3.5m-3-3.5v.7m0,0v2.8m0,0h.6m0,0v-3.5m33.3,12.1-.1-.8m.1.8h0m-.1-.8.1.8m0,0h.6m0,0,.1-.8m0,0h-.8m.8-7.8v7.8m-.8,0h0m0,0v-7.8m0,7.8v-7.8m.8-7v1.3m-.8,0v-1.3m0,1.3v-1.3m.7-.7.1.7m-.1-.7h-.6m-.1.7h.8m-.8,0,.1-.7m-.1.7h0m0,0,.1-.7m0,0h0m1.5,7.7h.6m0,0v-2.8m0,0v-.7m-3,3.5h2.4m0-3.5v3.5m-3-3.5v.7m0,0v2.8m0,0h.6m0,0v-3.5M781,413.5h.2m-.3-.8.1.8m0,0-.1-.8m.1.8h0m-.1-.8h0m0,0v-7.8m.2,7.8h-.2m0,0v-7.8m32.5,8.6-.1-.8m.1.8h0m-.1-.8.1.8m0,0h.2m-.1-.8h-.2m0,0h0m0,0v-7.8m0,7.8v-7.8m0-5.7v-1.3m0,1.3v-1.3m0,0,.1-.7m-.1.7h0m.1-.7h0m.2,0h-.2m-.1.7.1-.7m-.1.7h.2m3.7,15.6-.1-.8m.1.8h0m-.1-.8.1.8m0,0h.6m0,0,.1-.8m0,0h-.8m.8-7.8v7.8m-.8,0h0m0,0v-7.8m0,7.8v-7.8m0-5.7v-1.3m0,1.3v-1.3m.8,0v1.3m-.8-1.3.1-.7m-.1.7h0m.1-.7h0m.6,0,.1.7m-.1-.7h-.6m-.1.7.1-.7m-.1.7h.8m.8,7h.6m0,0v-2.8m0,0v-.7m-3,3.5h2.4m0-3.5v3.5m-3-3.5v.7m0,0v2.8m0,0h.6m0,0v-3.5m-31.8,10.8v-7.3m0,7.3v-7.3m32.5,8.6h.2m-.3-.8.1.8m0,0-.1-.8m.1.8h0m-.1-.8h0m0,0v-7.8m.2,7.8h-.2m0,0v-7.8m0-5.7v-1.3m0,1.3v-1.3m.3-.7H817m-.1.7h.2m-.2,0,.1-.7m-.1.7h0m0,0,.1-.7m0,0h0m-32.2,16.3-.1-.8m.1.8h0m-.1-.8.1.8m0,0h.6m0,0,.1-.8m0,0h-.8m.8-7.8v7.8m-.8,0h0m0,0v-7.8m0,7.8v-7.8m0-5.7v-1.3m0,1.3v-1.3m.8,0v1.3m-.8-1.3.1-.7m-.1.7h0m.1-.7h0m.6,0,.1.7m-.1-.7h-.6m-.1.7.1-.7m-.1.7h.8m.8,7h.6m0,0v-2.8m0,0v-.7m-3,3.5h2.4m0-3.5v3.5m-3-3.5v.7m0,0v2.8m0,0h.6m0,0v-3.5m4.5,12.1-.1-.8m.1.8h0m-.1-.8.1.8m0,0h.6m0,0,.1-.8m-.8,0h0m0,0v-7.8m.8,7.8h-.8m.8-7.8v7.8m-.8,0v-7.8m.8-7v1.3m-.8,0v-1.3m0,1.3v-1.3m.7-.7.1.7m-.1-.7h-.6m-.1.7h.8m-.8,0,.1-.7m-.1.7h0m0,0,.1-.7m0,0h0m1.5,7.7h.6m0,0v-2.8m0,0v-.7m-3,3.5h2.4m0-3.5v3.5m-3-3.5v.7m0,0v2.8m0,0h.6m0,0v-3.5m.6,9.8v-6.3m0,6.3v-6.3m32.5,8.6-.1-.8m.1.8h0m-.1-.8.1.8m0,0h.2m-.3-.8h0m0,0v-7.8m.2,7.8h-.2m0,0v-7.8m.3,8.6h.6m0,0,.1-.8m-.8,0,.1.8m0,0-.1-.8m.1.8h0m.7-.8h-.8m.8-7.8v7.8m-.8,0h0m0,0v-7.8m0,7.8v-7.8m0-5.7v-1.3m0,1.3v-1.3m.8,0v1.3m-.8-1.3.1-.7m-.1.7h0m.1-.7h0m.6,0,.1.7m-.1-.7h-.6m-.1.7.1-.7m-.1.7h.8m.8,7h.6m0,0v-2.8m0,0v-.7m-3,3.5h2.4m0-3.5v3.5m-3-3.5v.7m0,0v2.8m0,0h.6m0,0v-3.5M792,413.5l-.1-.8m.1.8h0m-.1-.8.1.8m0,0h.6m0,0,.1-.8m-.8,0h0m0,0v-7.8m.8,7.8h-.8m.8-7.8v7.8m-.8,0v-7.8m.8-7v1.3m-.8,0v-1.3m0,1.3v-1.3m0,0,.1-.7m-.1.7h0m.1-.7h0m.6,0,.1.7m-.1-.7H792m-.1.7.1-.7m-.1.7h.8m.8,7h.6m0,0v-2.8m0,0v-.7m-3,3.5h2.4m0-3.5v3.5m-3-3.5v.7m0,0v2.8m0,0h.6m0,0v-3.5m33.3,12.1h.6m0,0,.1-.8m-.8,0,.1.8m0,0-.1-.8m.1.8h0m.7-.8h-.8m.8-7.8v7.8m-.8,0h0m0,0v-7.8m0,7.8v-7.8m.8-7v1.3m-.8,0v-1.3m0,1.3v-1.3m.7-.7.1.7m-.1-.7h-.6m-.1.7h.8m-.8,0,.1-.7m-.1.7h0m0,0,.1-.7m0,0h0m2.1,4.2h0m-.6,3.5h.6m0,0v-2.8m0,0v-.7m-3,3.5h2.4m0-3.5v3.5m-3-3.5v.7m0,0v2.8m0,0h.6m0,0v-3.5m.7,12.1h.2m-.3-.8.1.8m0,0-.1-.8m.1.8h0m-.1-.8h0m0,0v-7.8m.2,7.8h-.2m0,0v-7.8m-32.4,6.3v-6.3m0,6.3v-6.3M786,386.3H752.7m33.3,2.8H752.7m0-2.8v2.8m33.3-2.8h7.1m0,2.8H786m0,0v-2.8m7.1,0h44.6m-44.6,2.8h44.6m-44.6,0v-2.8m44.6,0v2.8m-53,23.1h-.3m3.9,0h-2.8m6.4,0h-2.8m6.4,0h-2.8m6.4,0h-2.8m6.4,0h-2.8m6.4,0h-2.8m6.4,0h-2.8m6.1,0h-2.5m-26.3,0v1.4m28.8,0H784.4m28.8-1.4v1.4m-7.8-2.1h.9m-.9.6v-.6m4.2.6v-.6m1.4.6v-.6m-.3,0h.3m-1.4,0h.3m-21.9,0h.3m-.3.6v-.6m3,.6v-.6m-.9,0h.9m-.9.6v-.6m17.4,0h1.4m0,.6v-.6m-1.4.6v-.6m-16.3,0h.7m-.7.6v-.6m-4.6.6v-.6m-1.1,0h1.1m1.4.6v-.9m-1.4,0H788m-1.4.9v-.9m18.8,0h.9m-.9.3v-.3m-15.3.3v-.3m0,0h.9m0,.3v-.3m20,.3v-.3m-1.4.3v-.3m1.1,0h.3m-1.4,0h.3m-2.4,0h1.4m0,.3v-.3m-1.4.3v-.3m-16.3,0h.7m-.7.3v-.3m-2.1.1h0l.1.1v.1l.1.1m-2.7-.4h-1.1m2.8,0H788m1.3.9v-.5m4.4.5v-.6m10.4.6v-.6m-.7-.7h.3l.1.1.1.1.1.1.1.1v.3m-8.6-.7h-1.1m4.7,0h-2.8m6.4,0h-2.8m-5.5,0h-.2l-.1.1-.2.1v.1l-.1.1v.2l-.1.1m9.8.6h2.4m-3.4,0h.2m-13.6,0h2.6m1,0h2.6m11.8,0h2.3m-3.3,0h.2m-6.4,0h2.4m-3.2,0h0m-13.6,0h2.7m8.1,0h2.5m-3.4,0h0m15.3,0H813m-3.4,0h.3M790,439.7h0m0-19.1h0m1.1,0h0m-1.1,0h1.1m0,19.1h0m0,0H790m-.2-.1h0l.2.1m0,0h0m0-19.1h0m0,0h0l-.2.1m-5.5,19h0m0-19.1h0m1.3,19h0l-.1.1h-.1m0,0h0m0,0h-1.1m1.1-19.1h0m-1.1,0h1.1m-1.1,0h0m-.1.1h0l.1-.1m0,19.1h0m0,0h0l-.1-.1m5.8.1h1.1m0-19.1H790m1.1,19.1V439m0-17.8v-.6m0,18.4.1-.1m-.1.1H790m1.1-17.8.1.1m-1.2-.1h1.1m-1.3.3v-.8m.2.5-.1.1m.1-.7v.6m0-.6h0l-.2.1m0,18.9h0l.2.1m0-.7v.7m0-.7-.1-.1m-.1.7v-.8m1.5-17.2v-.1m0,0-.1-.2m0,0h-1.3m0,0-.1.2m0,.1v-.1m0,17.1v.2m0,0,.1.1m0,0h1.3m0,0,.1-.1m0-.2v.2m-7,.9h1.1m0-19.1h-1.1m1.2.6-.1-.6m0,19.1.1-.7m.1-.1-.1.1m0,0h-1.2m1.2-17.8.1.1m-1.3-.1h1.2m-1.3,18.4v-.8m.1.9h0l-.1-.1m.1-.6v.7m0-.7-.1-.1m0-.3v.2m0,0v.1m0,0h1.4m0,0v-.1m0-.2v.2m0-17.2v-.1m0,0v-.2m0,0h-1.4m0,0,.1-.1m0-.6v.6m-.1-.5h0l.1-.1m-.1.7v.2m0,0v-.8m0,.9v-.1m5.7,7h0m-1.7,6.1h0m0-1.6h0m1.7.9h0m-.6-7.3-1.7-1.1m2.3,8.4v-.3l-.2-.2-.5-.3-1-.1m0,1.6,1-.1.5-.2.2-.2v-.2m-3.1-9.4h0m0,3.4h0m-1.1-1.3h0m0,.9h0m0-.9h1.1m.9-2.1,3.1,2m-4-2h.9m-.9,2.1v-2.1m-1.1,3v-.9m1.1.9h-1.1m1.1.4v-.4m.8.4h-.8m.8-.4v.4m3.2-.4h-3.2m3.2-1v1m-1.5-.9-1.7-1.1m0,1.1h1.7m-1.7-1.1v1.1m.6,5.6h0m0,3.3h0m-2.6-1.6h0m.4-5.2h0m3.9-.2h.8m-.8,2.1v-2.1m-3.9.2,3.9,1.9m-4.3-1.1.4-.8m4.7,3h-.5m.5-3.2v3.2m-.6.9.6.6.1.6m-2.6-1.6,1.1.1.8.3m-4.5,1.3.1-.5.1-.4.3-.3.4-.2,1.7-.3m0,3.3-1.7-.3-.4-.2-.3-.3-.1-.4-.1-.4m5.2-.1v.5l-.2.4-.3.3-.4.2-1.7.3m0-2.5-1.1.2-.4.2-.2.2v.3m3.4,0v-.3l-.2-.2-.5-.3-1-.1m0,1.6,1-.1.5-.2.2-.2v-.2m-3.1.5.8.2h.6m-1.7-.7v.1l.1.2.2.2m3.4-2.7h0m0,0-4.6-2.2m0,0h0m1.1-1.6v-.4m-1,0v-.9m1,0v-2.1m3.5,7.2-4.6-2.2m0,0,.4-.8m3.9,1.9v-2.1m-1.7,7-1.7-.3-.4-.2-.3-.3-.1-.4-.1-.4m0,0,.1-.5.1-.4.3-.3.4-.2,1.7-.3m-.2,5,1.9-.2,1.7-.8,1.5-1.2,1.2-1.6.6-1.8.1-1.9-.4-1.9-.8-1.8-1.4-1.4-1.6-1-1.9-.5H787l-1.9.5-1.6,1-1.3,1.4-.9,1.8-.4,1.9.1,1.9.7,1.8,1.1,1.6,1.5,1.2,1.8.8,1.9.2m-8.8,0v.3l.1.3.1.2.2.2.2.2.3.1.2.1h.3m.3,0h-.3M779.2,423v14.2m.3,0h-.3m.3,0v.3l.1.3.1.2.2.2.2.2.2.1.3.1h.3m0,0h14.2m0,0h.2l.3-.1.2-.1.3-.2.1-.2.2-.2v-.3l.1-.3m0,0V423m0,0-.1-.2v-.3l-.2-.2-.1-.3-.3-.1-.2-.2h-.3l-.2-.1m0,0H780.9m-1.4,1.4v14.2m15.4-11.4.1-.4V425l-.1-.4-.2-.4-.3-.2-.4-.2h-.9m1.8,10.6.5-1,.4-1,.2-1.1.1-1.2L796,429l-.2-1.1-.4-1.1-.5-1m-1.8,10.6.5.1h.4l.4-.2.3-.3.2-.3.1-.4v-.5l-.1-.4m-12.1,2,1.1.8,1.3.6,1.4.4,1.4.1,1.4-.1,1.3-.4,1.3-.6,1.1-.8m-12.1-2-.1.4v.5l.1.4.2.3.4.3.3.2h.5l.4-.1M781,425.8l-.5,1-.4,1.1-.2,1.1-.1,1.1.1,1.2.2,1.1.4,1,.5,1m1.8-10.6h-.9l-.3.2-.4.2-.2.4-.1.4v.4l.1.4m12.1-2-1.1-.7-1.3-.6-1.3-.4L788,422l-1.4.1-1.4.4-1.3.6-1.1.7m-2.2-2.2-.3.1h-.2l-.3.2-.2.1-.2.3-.1.2-.1.3v.2m.3,0h-.3m1.7-1.4-.3.1h-.3l-.2.2-.2.1-.2.3-.1.2-.1.3v.2m1.4-1.4h-.3m36,.5v3.2m2.1-3.2h-2.1m0,3.2h2.1m0,0v-3.2m0-.3h0v-.1h-.1v-.1h-.1m-1.9.2v.3m2.1,0v-.3m-2.1.3h2.1m-.2-.5h-1.7m0,0h0l-.1.1h-.1v.1m0,3.7v.1l.1.1h.1m1.9-.4h-2.1m0,0v.2m.2.2h1.7m0,0h.2v-.2m0,0v-.2m-25.1,19.6h2.1m-2.1-3.2v3.2m2.1-3.2h-2.1m2.1,3.2v-3.2m0,3.2h-2.1m0,0v.3m0,0h0v.1h.1v.1h.1m0,0h1.7m0,0h0l.1-.1h.1v-.1m0,0v-.3m-1.9-3.6h-.2v.2m0,.2h2.1m0,0v-.2m0,0v-.1l-.1-.1h-.1m0,0h-1.7m-.2.2v.2m2.1,6.4v-1.5m-2.1,1.5h2.1m0-1.5h-2.1m0,0v1.5m.9-.5h0l.1.1m0,0h0l.2-.1m0,0h0m.1,0h0l-.2.2h-.1m0,0h0l-.1-.1h-.1v-.1m0,0v-.1h.1v-.1m0,0h0m-.1,0v-.2m0,0h0l.1-.2h.1m0,0h0l.2.1h.1v.1m0,0h0m-.1,0h0m0-.1h-.2m0,0h0l-.1.1h-.1m0,0v.1h.1v.1h.2m0,0v.1m0,0h-.2v.1m.7.1h0l.2-.1m-.3,0h0m.1-.1h0l-.1.1m.1-.2v.1m-.2-.3v.1l.1.1h.1m0-.3h0l-.2.1m.3-.1h0m.1.1h0m.1,0h0m-.3-.2h0l.2.1.1.1m-.5,0h0V447h.2m-.2.4v-.2m.1.2h0m-.1.2v-.1l.1-.1m.1.4h0l-.2-.1v-.1m.4,0h0l-.1.2h-.1m.2-.2h0m-1.2.1-.1.1m0-.1h0m0-.7v.7m-.1-.7h0m0,.8V447m.1.8h0m-.5-1.2h-.2m0,1.5h.2m0,0v-1.5m-.2,0h0l-.2.1v.1m0,0v1.1m0,0v.1h.1v.1h.1m2.3,0h.2m-.2-1.5v1.5m.2,0h0l.1-.1.1-.1m0,0v-1.1m0,0h0l-.1-.1-.1-.1m0,0h-.2m-5.6,1.8h.2m.2-2.8h-.4m.2,2.8h.2m0,0v-2.8m0,2.8.5-.2.4-.3.2-.4.1-.5-.1-.5-.2-.4-.4-.3-.5-.2m-.4,0v2.8m0-2.8-.5.2-.4.3-.2.4-.1.5.1.5.2.4.4.3.5.2m-11.6,0v-5.7m13.2,0H778.5m13.2,5.7H778.5m13.2,0v-5.7m-9.4,4.6v.2l.2.1.2.1m0,0,.2-.1.1-.1.2-.2m0,0h.2m0,0-.1.3-.2.2-.2.1h-.2m0,0-.2-.1-.3-.1-.1-.2v-.2m0,0v-.2l.1-.1v-.1l.1-.1m0,0h0l-.2-.1m0,0-.1-.2v-.2m0,0v-.4l.2-.2.3-.1.2-.1m0,0,.3.1.3.2.1.2.1.2m0,0h-.2m0,0-.1-.1v-.2h-.1m0,0-.1-.1h-.3m0,0h-.2l-.2.1-.1.2v.1m0,0v.3l.2.1.4.1m0,0v.2m0,0-.3.1-.2.1v.2m2.7-2.4,1.2-1.8m-.1,1.8H785m1.1.5v-.5m.2.5h-.2m.2-.5v.5m.2-.5h-.2m.2-.3v.3m-.2-.3h.2m-.2-1.5v1.5m-.1-1.5h0m.4,4.5-.1.2m-.2-.2h.3m-.3-2v2m-.3-2h.3m-.3,2.2v-2.2m.5,2.2H786m-1.5-2.3.2.1h.1l.2.2.1.1.1.8m-1.5,0,.1-.8.3-.3h.2l.2-.1m0,2.4h-.2l-.2-.1-.3-.3-.1-.8m1.5,0-.1.8-.1.1-.2.2-.1.1h-.2m0-.2.1-.1h.1l.2-.3.1-.6m-1.1,0,.1.6.2.3h.1l.2.1m-.5-1.6-.1.2v.4m.6-.9h-.2l-.2.1-.1.2m1,.6-.1-.6-.2-.2-.1-.1h-.1m-.5-2.5h-.2l-.1.1-.2.2m1,0-.1-.1-.1-.1-.3-.1m-.1.7.4-.1.1-.1v-.1l.1-.1m-.6.6V444m.7.7h0l-.1-.2-.2-.2-.4-.1m.1,1h.2l.2-.2.1-.1.1-.2m-1,.4h0l.2.1h.2m-.5-.4v.2h.1v.1m-.3-.3h.2m.5.6h-.3l-.3-.2-.1-.2v-.2m1.5-.1-.1.3-.2.3-.2.1H784m.6-1.1.1.1.1.1v.2m-.4-.6h0l.2.1v.1m.1-.7-.1.2v.1l-.1.1-.1.1m-.4-1h.3l.2.2.1.1.1.2m-1.4,0,.1-.2.2-.2.2-.1h.2m-.5.5h-.2m2.8,0-.7,1m0,0h.7m0,0v-1m-4.2-.2.1-.3m.2.3h-.3m.3,2v-2m.2,2h-.2m.2-2.3v2.3m-.4-2.3h.4m45-19.8v-3.6m0,0h-4.2m3.2,1.8-.1.4-.2.3-.4.3-.4.1-.4-.1-.3-.3-.3-.3v-.8l.3-.4.3-.2.4-.1.4.1.4.2.2.4.1.4m-7.5,4v-1.8m-39.7-2.1v17m-10.4-14.2v.2l.2.2.1.1h.2m0-1.1-.2.1-.2.1-.1.2v.2m.8-.4-.1-.1h-.1l-.1-.1m.5.6v-.3l-.1-.1h-.1m-.3.9.2-.1.2-.1.1-.2v-.1m-.3,20.3v.3l.2.1.1.1.2.1m0-1.1-.2.1-.2.1-.1.2v.1m.8-.4h0l-.2-.1H770m.5.5h0v-.2l-.1-.1-.1-.1m-.3,1,.2-.1.2-.1.1-.2v-.2m48.7-15.3h-.3m-1.4,20.1h5.7m-1.9-8.2h1.9m-58.1-21.6v3.6m4.2-3.6h-4.2m1,1.8.1.4.3.3.3.3.4.1.4-.1.4-.3.2-.3.1-.4m0,0-.1-.4-.2-.4-.4-.2-.4-.1-.4.1-.3.2-.3.4-.1.4m61.3,28v-3.6m-4.2,3.6h4.2m-4.2-3.6v3.6m1.1-1.8v.4l.3.4.3.2.4.1.4-.1.4-.2.2-.4.1-.4m0,0-.1-.4-.2-.3-.4-.3-.4-.1-.4.1-.3.3-.3.3v.4m-6.8,1.8,1.4-.3,1.1-.8.8-1.1.3-1.4m0,0-.3-1.3-.8-1.2-1.1-.7-1.4-.3m-2.1,3.5.2-.8.4-.7.7-.4.8-.2.8.2.7.4.5.7.2.8m0,0-.2.9-.5.6-.7.5-.8.2-.8-.2-.7-.5-.4-.6-.2-.9M815,444v.1l.1.2.2.1h.3l.1-.1.1-.2.1-.1m0,0-.1-.2-.1-.1-.1-.1-.2-.1-.1.1-.2.1-.1.1v.2m5,1.9v.2l.1.1.1.1.2.1.2-.1.1-.1.1-.1v-.2m0,0v-.1l-.1-.2-.1-.1h-.4l-.1.1-.1.2v.1m-2.9-2.8h0l.1.3.1.1h.4l.1-.1.1-.2.1-.1m0,0-.1-.2-.1-.2-.1-.1h-.3l-.2.1-.1.2v.2m-52,2.8v3.6m0,0h4.2m-1-1.8-.1.4-.2.4-.4.2-.4.1-.4-.1-.3-.2-.3-.4-.1-.4.1-.4.3-.3.3-.3.4-.1.4.1.4.3.2.3.1.4m4.6-24.4.1-.9.5-.6.7-.5.8-.2.8.2.7.5.5.6.1.9m0,0-.1.8-.5.7-.7.4-.8.2-.8-.2-.7-.4-.5-.7-.1-.8m3.7-2.1v.1l.1.2.1.1h.4l.1-.1.1-.2v-.1m0,0V421l-.1-.1-.1-.1-.2-.1-.2.1-.1.1-.1.1v.2m-4,0v.1l.1.2.1.1h.4l.1-.1.1-.2v-.1m0,0V421l-.1-.1-.1-.1-.2-.1-.2.1-.1.1-.1.1v.2m-.1,4v.2l.1.1.1.1.2.1.2-.1.1-.1.1-.1v-.2m0,0h0l-.1-.3-.1-.1h-.4l-.1.1-.1.2v.1m4.2,0v.2l.1.1.2.1.1.1.2-.1.1-.1.1-.1v-.2m0,0h0l-.1-.3-.1-.1H777l-.2.1-.1.2v.1m.8-1.9v.1l.1.2.1.1h.4l.1-.1.1-.2v-.1m0,0v-.2l-.1-.1-.1-.1-.2-.1-.2.1-.1.1-.1.1v.2m-5.8,0v.1l.1.2.1.1h.4l.1-.1.1-.2v-.1m0,0v-.2l-.1-.1-.1-.1-.2-.1-.1.1-.2.1-.1.1v.2m2.9,2.9v.1l.1.2h.1l.2.1.2-.1h.1l.1-.2v-.1m0,0V426l-.1-.1-.1-.1-.2-.1-.2.1-.1.1-.1.1v.2m39.6,19.7v.2l.1.2.2.1h.3l.2-.1.1-.2.1-.2m0,0-.1-.2-.1-.1-.2-.1-.1-.1-.2.1-.2.1-.1.1v.2m-20.8-3.5v2.5m-1.3,3.9v-6.4m-13.9,6.4h13.9m-13.9-2.9v2.9m-8.9.7v-3.6m0,3.6h48.2m0-7.1-1.3.3-1.2.7-.7,1.2-.3,1.3.3,1.4.7,1.1,1.2.8,1.3.3m-3.2-19.2V439m1-9.6h-.4l-.2.1-.1.1-.1.2-.1.1v.2l-.1.2m1.9-.9h-.9m1.1-5.7v1.8m-14.5,1.7h3m-3-.2v.2m0-3.9v.2m-6,15.4h.5m-.5,6v-3.2m2.1,4.9h.2m-.2-12v12m14.6,0v-12m-.2,12h.2m-16.9-.2h-2.1m0,1.9h2.1m-21.1-27.9v.1l.1.2.1.1h.4l.1-.1.1-.2v-.1m0,0v-.2l-.1-.1-.1-.1-.2-.1-.2.1-.1.1-.1.1v.2M815.1,448l.1.2.1.2.1.1h.3l.2-.1.1-.2V448m0,0v-.1l-.1-.2-.2-.1h-.3l-.1.1-.1.2-.1.1m-50-24.7V439m9.9-19.3h-5.7m9.9,0H775m2.3,9.7h-1.1m2,.9v-.2l-.1-.2-.1-.1-.1-.2-.1-.1-.2-.1h-.3m.9,8.5v-7.6m.8-8.9v16.5m.2-16.5H779m-.5,1.9-.2-1.4-.8-1.1-1.1-.8-1.4-.3m0,0-1,.2-1,.4-.7.7-.6.9-.2,1V424l.4.9.6.9.8.6,1,.3,1.1.1,1-.3.9-.5.7-.8.4-.9.1-1m-9.2,0v-3.6m-4.2,3.6h4.2m-3,7V439m-.8-15h.6m0,0v.3m0,0h-.6m0,0V424m1.3.8h.3m0,0v.3m0,0h-.8m0,0v-.3m0,0h.2m0,0v-1.2m0,0h.3m0,0v1.2m1-1.2h0l.3.1.1.1.1.4m0,0v.9m0,0H768m0,0v-1m0,0V424l-.1-.1-.1-.1m0,0-.1.1h-.1l-.1.3m0,0v.9m0,0h-.2m0,0v-.9m0,0V424l.1-.3.2-.1h.2m1.5,0h.3l.3.3.1.2.1.3m0,0-.1.3-.2.3-.2.1-.3.1m0,0-.3-.1-.3-.2-.1-.3-.1-.2m0,0,.1-.4.2-.2.2-.2h.3M819.2,444v.1l.1.2.1.1h.4l.1-.1.1-.2V444m0,0v-.2l-.1-.1-.1-.1-.2-.1-.2.1-.1.1-.1.1v.2m-.2,4v.2l.1.2.2.1h.4l.1-.1.1-.2V448m0,0v-.1l-.1-.2-.1-.1h-.4l-.2.1-.1.2v.1m-1.9.8v.2l.1.1.2.1h.3l.1-.1.1-.1.1-.2m0,0-.1-.2-.1-.1-.1-.1h-.3l-.2.1-.1.1v.2m-20-21.6v5m0,0h2.1m-.6-3.6v-.2l-.2-.2-.1-.1-.3-.1-.2.1-.2.1-.1.2v.2m0,0v.2l.1.2.2.1h.5l.1-.1.2-.2v-.2m0,2.5v-.3l-.2-.1-.1-.2h-.5l-.2.2-.1.1v.3m0,0v.2l.1.2.2.1h.5l.1-.1.2-.2v-.2m.6,1.1v-5m0,0h-2.1m-20.9.7h-9.9m9.9,1.5h-2.9m-2.1,0h-4m9,0v-1.5m-9.9,0v2.4m.9-.9h-.3l-.2.1-.1.1-.2.2v.1l-.1.2v.2m52.6-.9h-2.7m2.5-3.9h.2m-2.5,0h.2m-.4,0v3.9m.2-3.9h-.2m2.7,3.9v-3.9m-1.4,16.9h1.7m-4.9,0h3.2m-3.2-3.4,2.3,2.3m-2.3-2.3v3.4m2.3-1.1h2.6m4,0v4.6m4.2,0h-4.2m2.1-16.5h-4m4.9-4.6v-1.2m0,0h.3m-1.5,0h.3m1.2,0v1.9m-1.1,0H825m-41.2-4.1h-4.6m28.8,1.9h-6.1m17.5.4V428m6-3.7v1.2m-16.2,2.4v4.3m-4.3-4.3h4.3M827,444h.3m-1.5,1.5h-.3m-2.3-22.2h4.2m-4.2,18h.8m.6,3.3v-.4m-.4.4h.4m.6,0v.2m1.7-21.2h.4m-.8,1.9h-.3m0,0-.8-1.2m.3,2v-.2l-.1-.1-.1-.1-.2-.1-.1.1-.2.1-.1.1v.2m0,0v.1l.1.2h.2l.1.1.2-.1h.1l.1-.2v-.1m-.7-.8v-1.9m.3,0,.9,1.2m-29.8-2.2v-1.2m12.8,10.8h.3m15.1-8.1v.4m-.7-.4h.7m-19.7,3.1H808m-3.1,0v.7m22.3-1.6-.1-.2-.1-.1-.1-.1-.2-.1-.1.1-.2.1-.1.1v.2m0,0v.1l.1.2h.2l.1.1.2-.1h.1l.1-.2.1-.1m-5.6,0-.1-.2-.1-.1-.1-.1-.2-.1-.1.1-.2.1-.1.1v.2m0,0v.1l.1.2h.2l.1.1.2-.1h.1l.1-.2.1-.1m-25.2-4.9h-4.8m27.3,2.3v-1.9m5.9,22.4v.4m2.1-19.1v-1.9m-15.8,8.6h1m15.2-6.7h-.4M824,441.3l2.2-2.3m-47-19.3v1.7m48.1,24.1H827m-19-18.3V427m15.2-7.3v3.6m-33.7-1.9h-3.6m10.6,1.9h5.4m6.1.2v-.2m4.1,8.9v-8.5m0,0h4.3m0-1.9v1.9m.2-1.9h-.2m2.5,0h-.2m.2,1.9h.5m6.8,6.6v-.4l-.1-.1-.1-.2-.2-.1-.1-.1h-.4m.9,9.6v-8.7m1.2,15.6V423.3m-4.2-3.6h-44m47.1,8v.1l.1.2.2.1h.3l.1-.1.1-.2.1-.1m0,0-.1-.2-.1-.1-.1-.1-.2-.1-.1.1-.2.1-.1.1v.2m-1.7-3.2h-.7m0,0v-.4m3.4-.5v1.9m-2.1,19.3h-.4m0,0v.4m0,0h-.2m0,0v-.4m0,0h-.4m0,0v-.2m.4-.4h.2m0,.4h.4m1.2-.6h.3m0,0v1.5m0,0h-.2m0,0-.7-1m0,0v1m-.3,0V444m0,0h.2m0,0,.7,1m0,0v-1m.9,0v1.5m-.3,0V444m-57.7,1.9h-4.2m4.2,0h8.9m-12.6-1.3v-.4m.6.4v.2m-.6-.6h.3m-.3.6h-.4m.7-.2h.3m1-.6h.3m1,0h0l.3.1.1.1v.4m-1.7.6V444m-.2,1.2h.2m1-.6v.9m0,0H768m-2.8-.7v-.2m13-2.2v3.5m-11.2-.4v-.3m1-.6v-.3l.1-.2.2-.1h.2m.7.7.1-.3.2-.3.2-.1h.3m0,0h.3l.3.2.1.3.1.2m0,0-.1.4-.2.3-.2.1H770m-1.5-1.3-.1.1h-.1l-.1.3m-2.3.6h-.3m30.3-3.7h0m-30.7,3.1h.4m.3-.4v.4m27.5-3.1v.9M779,438.9h4.8m-4.8-1v1m0-1h-.8m0,1.1v-1.1m-2.3,3.4,2.3-2.3m-4.9,2.3h2.6m-7.4,0h2.7m-4.9-2.3,2.2,2.3m-2.2-2.3h-1.2m0,0v6.9m27-3.5H778.2m13.9,0h1.3m0-.9h0m2.5,0v-2.6m-4.3,0h4.3m-10,0h3.6m-23.3,5.9h-.3m0,0v.4m-.3,0v-.4m1.9.4h.3m0,0v.3m0,0H767m.5-1.5v1.2m1.4-.6v.9m0,0h-.2m0,0v-1m0,0v-.1l-.1-.1v-.1h-.1m-.5,1.3v-.9m2,.9h-.3l-.3-.3-.1-.2-.1-.3m34.3-11.9v-3.1m-2.6-2.7h1m0,0h.2m6.8-3.5V427m-.3,2.7h-1.7m-35.5,11.4h-.2m2.1,0h-.2m20.3.4V441m-22.2-13h2.1m10.8,10.7h-.2m2,0h-.3m18.7-9v3.1m1.8,0v-3.1m-2.7,3v-2.9m-19.6,10.4v-1.3m.1-.2v1.4m0-1.4h0m-.1-.1v.3m37.5,3.8v-1.4m0,0v-.2m-29.7-21v1.3m0,.2v-.2m-.1.2h0m-5.6,17.3v1.3m0-1.3v-.3m0,.1h0m0,1.4v-1.4m13.3-6.5v.6m-5.8,8.9h.2m2.1,0h.2m-2.5-.1h0m2.5-.6v.5m-.1.1h0m.1.1v-.2m12.7-8.7v-3.1m-.1.1.1-.1m-12.7,16v-.8m-.1.7V445m.1-.1h-.2m-2.3,0h.2m0,.1h-.2m2.4,0h0m0,0,.1-.1m-2.5.8h2.5m-.1-.1h0m-2.4,0h2.4m10.3-15.9h-1.8m.1.1-.1-.1m1.7.1.1-.1m-32.8,12.9h-2.1m31.9-9.8h.4m-1.7,0h.5m1.1-.1.1.1m-.4-.1h.3m-1.5,0h.4m-16.4-12.6v1.3m0,.2v-.2m10.5,26.9v-1.9m-.1,1.8v-1.7m-10.4-24.9h0m9.8,26.7h.7m-.1-.1.1.1m-.6-.1h.5m4.6-21.3H802m-30.8,15.7v-1.3m.1,1.3h0m0-1.5h0m-.1,0v.2m12.6-19.9v-1.3m0,1.3v.2m.1,0h0m25,5.3v-3.4m-.9,0h.9m-.9,0h-.3m1.2,0h-1.1m1.1,0h0m-6.9,1.2v-1.2m0,3.4v-1.1m0,1.1.1.1m-10.6-5.4v-1.5m-.2,1.5h.2m-2,0h.3m-3.9,18.6h-2.1m2.1-.1h0m-2,0h2m-2,0h0m-7.4,6h-2.1m2.1.1h-2m15-6v-1.3m0-.3v.3m12.3-9.2v3.1m.1-.1-.1.1m.1-3v2.9m-8.3,13.7h-.7m.7,1.9v-.2m0-1.5v-.2m-.1.1.1-.1m-.2-5.4v.6m2.3,0h0m-2.3,0h.2m2.2,0V441m23.4,1.7h2.1m0-.1h0m-17.8-12.9h-1.7m.1.1-.1-.1m1.6.1h-1.5m1.5,0,.1-.1m15.9,11.4h-.2m2.1,0h0m0,0h0M806,429.8h-1.6m0,0v2.9m1.6,0v-2.9m-29.5,12.8v2.1m29.2-11.9h.4m-1.8,0h.5m1.2-.1.1.1m-.4-.1h.3m-1.6,0h.4m-.4,0-.1.1m2.6-3.1v3.1m.1-3-.1-.1m-30.4,18.5v-2.1m0,.1h0m0,2v-2m-3.4-16.6h.2m-2.1,0h.2m-.2-.2v.2m.1-.1-.1.1m.1-1.6h0m-.1,1.4V428m12.7-7.9v1.5m1.7,0h.3m-2,0h.2m1.8,0v-1.5m-11.5,26v2.1m.1-2v2m0-2h0m18.4.2v1.9m0-1.8v-.1m0,1.8v.1m0,0h.7m-.1-.1.1.1m-9.8-28.2h2.1m-2,0h0m2,0h-2m2,0h0m24.9,12.7h.4m-1.8,0h.6m-36.7,8.5v-.2m-.1,0h0m0,1.5h0m.1-1.3v1.3m48-14.6v1.4m0,.2v-.2m-31.8-9.3h2.1m-.1,0h-2m2,0h0m-2,1.3v-1.3m0,1.3v.2m0,0h0m0-1.5v1.5m0-1.5h0m12.6,3.4h-.2m0,0h-1m1.1,0h-1.1m1.1,0h0m-27.6,21.2v-2.1m0,0h2.1m-2,0h0m2,0h0m34.6-12.9v2.5m0,.5.1.1m0,0v-.6m-19.6,8h-2.1m0-.1h0M801,429.7h-1.8m.1.1-.1-.1m1.8,3.1v-3.1m-.1.1.1-.1M793.4,441h2.5m-2.5,0h0m2.4,0h-2.4m2.4,0h0m-6.3-2.3h0m6.8,7.8.1-.1m0,0h-.7m.6.1h-.5m13.7-14.3v-2.5m-.1,2.5v.6m.1-.1-.1.1m9.8,9.6v.3m.1-.1-.1.1m.1-1.6h0m-.1,0v.2m0,1.1v-1.1m-10.7-11.5H807m0,0v2.9m1.5,0v-2.9m-34,12.8v2m2,0v-2m0,0h-2m33.8-9.8h.3m-1.7,0h.5m1.1-.1.1.1m-.3-.1h.2m-1.5,0h.4m-.4,0-.1.1m-30.4,11.9h-2.1m2.1-.1h0m-2,0h2m-2,0h0m35-14.9h1.6m-1.6.1v-.1m1.6.1v-.1m-3.3-3.9v1.1m0-3.4v1.2m0-1.2h0M773.3,428v1.4m-.1-1.4h0m0,1.5.1.1m0,0v-.2m20.1,15.5v.8m0-.1h0m0-.6v.6m0-.6v-.1m.1,1.7v-.1m0,1.7h0m0-1.7h-.6m0,0v1.7m0,0h.6m5.8-18.4v2.9m1.6,0v-2.9m0,0h-1.6m-7.7,9.1v1.3m0-1.3v-.3m-.1.1.1-.1m-.1,1.5.1.1m8.9-7.4h.5m-1.8,0h.5m1.2-.1.1.1m-.5-.1h.4m-1.6,0h.4m-.4,0-.1.1m22-3.2h0m-2,0h.2m1.9-.1v.1m-1.9-1.6h-.2m2.1,0h0m-1.9,0h1.9m-10.2,1.8h-1.6m0,0v2.9m1.3,0h.3m-1.6,0h.5m1.1,0v-2.9m-19.6,10.3v-1.4m-1.7,0h-.3m2,0h-.2m-1.8,0v1.4m0,0h2M819.2,428v1.4m0,0v.2m.1-.1-.1.1m.1-1.6h0m-18.4-4.5V427m0-.1v.1m0-3.5v3.4m0-3.4h0m-5.2,22.9v.2m0,1.7v-.2m.1.1-.1.1m.1-.2h0m0-1.6v.1m0-.1-.1-.1M808.9,427H808m.9-.1v.1m-1.1-.1h1.1m-1.1,0-.1.1m0,0h.3m-33.6,21.2h2.1m0,0h0m-2,0h2m-2,0h0M771.3,428v1.5m1.8,0h0m-1.8,0h0m1.9,0V428m0,0h-1.9m.1,13.1h0m1.8,0h0m-1.9,0v1.5m0,0h1.9m0,0v-1.5m48.1,1.5v-1.5m-1.9,0h0m1.9,0h0m-2,0v1.5m0,0h2m-2-14.6v1.5m1.9,0h0m-1.9,0h0m2,0V428m0,0h-2m-47.8.5H773m0,13.6h-1.5m49.5,0h-1.5m0-13.6H821m-49.6,0h0m0,0v.3m.1,0v-.3m1.6.3v-.3m-.1,0h0m0,.3v-.3m.1,13.6h0m0,0v-.2m-.1,0v.2m-1.6-.2v.2m.1,0h0m0-.2v.2m47.9-.2v.2m.1,0h0m0-.2v.2m-.1-13.6h0m0,0v.3m.1,0v-.3m1.7.3v-.3m-.2,0h.2m-.2.3v-.3m.2,13.6H821m.2,0v-.2m-.2,0v.2m-49.6-13.3h0m0,0h0m0,.1h0v-.1m1.7,13.1h0m0,0v-.1m0-.1h0v.1m-1.7-.1h0v.1m0,0v.1m.1,0h0m1.6-13h0v-.1m0,0h0m-.1,0h0m46.4,0h0m0,0h0m0,.1h0v-.1m1.8,13.1H821m.2,0v-.1m0-.1h0v.1m0-12.9h0v-.1m0,0h0m-.2,0h.2m-1.8,12.9h0v.1m0,0v.1m.1,0h0m-8.7-11.2v-.5m-.8.5v-.5m0,0h.8m-11.1.5v-.5m.8.5v-.5m-.8,0h.8m6.9.5v-.5m.9.5v-.5m-.9,0h.9m-2.6.5v-.5m-.9.5v-.5m0,0h.9m-2.6.5v-.5m-.8.5v-.5m0,0h.8m0,.8h0v.2m-.8,0h0V431m.8-.3h0v.3m-.8-.3h.8m-.8.3h0v-.3m7.7.5h0V431m.8,0h0v.2m0-.5h0v.3m-.8-.3h.8m-.8.3h0v-.3m-4.3.3h0v.2m-.9,0h0V431m.9-.3h0v.3m-.9-.3h.9m-.9.3h0v-.3m-5.1.5h0V431m.8,0h0v.2m0-.5h0v.3m-.8-.3h.8m-.8.3h0v-.3m7.7.5h0V431m.9,0h0v.2m0-.5h0v.3m-.9-.3h.9m-.9.3h0v-.3M773,441.9h-1.5m0-13.1H773m.1.4v-.3m-.1-.1h0l.1.1m-.1.1v-.2m0,12.8v.3m.1-.2v.1l-.1.1m.1-.5v.3M771.5,429v-.2m-.1.1h0v-.1h.1m-.1.4v-.3m0,12.5v.3m.1.2h0l-.1-.1v-.1m.1-.1v.3m48-13.1H821m0,13.1h-1.5m1.7-12.7v-.3m-.2-.1h.2v.1m-.2.1v-.2m0,12.8v.3m.2-.2v.1h-.1v.1H821m.2-.5v.3m-1.8-.3v.3m.1.2h0v-.1h-.1v-.1m.1-.1v.3m0-12.9v-.2m-.1.1h0v-.1h.1m-.1.4v-.3M773.1,441v.3m-1.7,0h0v.1m.1.2h0l-.1-.1v-.1m0-.4v.3m.1,0h0m1.6.1v.1l-.1.1m.1-.3h0v.1m0-.1h0m0-12h0v-.1m-.1-.2h0v.1h.1v.1M771.5,441v.3m1.5-.3v.3m-1.5-11.7v-.3m-.1.3v-.3m1.7.3v-.3m-.1,0h0m0,.3v-.3m-1.5,12h0v.3m1.5,0h-1.5m1.5-.3h0v.3m0-.3h-1.5m1.5-12h0V429m-1.5,0H773m-1.5.3H773m-1.5,0h0V429m-.1.2h0l.1-.2m-.1.3h0v-.1m0,.1h0M821.2,441v.3m-.2-.3v.3M819.5,429H821m-1.5.3H821m.2,12.1v.1h-.1v.1H821m.2-.3h0v.1m0-.1H821m-1.6,0h0v.1m.1.2h0v-.1h-.1v-.1m.1-12.1h0V429m-.1.2h0l.1-.2m-.1.3h0v-.1m1.8.1h0v-.1m-.2-.2h0l.1.1h.1v.1m-.2.1h0V429m-1.5.6v-.3m-.1,0h0m0,.3v-.3m0,11.7v.3m.1,0h0m0-.3v.3m0,0h0v.3m1.5,0h-1.5m1.5-.3h0v.3m0-.3h-1.5m1.7-11.7v-.3m-.2,0h.2m-.2.3v-.3m-53.8.3h10.1m-10.8.7v-.2l.1-.1v-.1l.1-.1.1-.1.1-.1h.3m10.1,0h.2l.2.1.1.1.1.1v.1l.1.1v.2m-11.5,8.6v-8.6m2.1,10.7-2.1-2.1m9.4,2.1h-7.3m9.4-2.1-2.1,2.1m2.1-10.7v8.6m47.3-9.3h.3l.1.1.1.1.1.1.1.1v.3m-10.7-.7h10m-10.8.7.1-.2V430l.1-.1.1-.1.1-.1.1-.1h.3m-.8,9.3v-8.6m2.2,10.7-2.2-2.1m9.4,2.1h-7.2m9.3-2.1-2.1,2.1m2.1-10.7v8.6m-27.8,9.3v-1.4m.1,1.3-.1.1m0,0h0m14.2,0H798.2m14.2,0h0m0,0-.2-.1m.2.1v-1.4m-14.1,1.3v-1.4m13.9,1.4H798.3m13.9,0v-1.4m-10.7-21.9v.8m.1-.9-.1.1m.6-.1h-.5m.5.1h-.6m6.8,0-.1-.1m-.5,0h.5m-6.7.9.1.2m.5-.2h-.6m.6.2h-.5m6.7-.2v-.8m-.6,0h.6m-.6,1h.5m0,0,.1-.2m-.6,0h.6m-5.2-2.1h0M803,427h0m-.2-3.5h-.2m0,3.5h.2m-.4-3.5h-.3m0,3.5h.3m-.3-3.5V427m5.3-2.2-.5.7m0,0h.5m0,0v-.7m.3-1.3h-4.3m0,3.5h4.3m0,0v-3.5m-3.4,2.1-.1.2-.1.1-.1.1h-.2m0,0h0l-.3-.1-.1-.2m0,0h0m.1-.1.1.1.1.1h.1m0,0h.3v-.2m0,0v-.2m0,0-.1-.1h-.1v-.1h-.1m0,0-.1-.1-.1-.1m0,0-.1-.1v-.1m0,0v-.2l.1-.1.1-.1h.2m0,0,.1.1h.1l.1.1.1.1m0,0-.2.1m0,0v-.1l-.1-.1h-.2m0,0h0l-.2.1v.1m0,0h0l.1.1v.1m0,0h0l.2.1m0,0,.2.1.1.1v.2l.1.1m1,0v.2l-.1.1-.2.1h-.1m0,0h-.2l-.1-.1-.2-.2m0,0,.2-.1m0,0h0l.1.2h.2m0,0h.2l.1-.1v-.1m0,0v-.1h-.1v-.1m0,0-.1-.1-.1-.1m0,0h0l-.2-.1V425h-.1m0,0v-.1h-.1v-.1m0,0,.1-.2.1-.1.1-.1h.1m0,0,.2.1.1.1.1.1m0,0-.1.1m0,0-.1-.1-.1-.1h-.1m0,0h-.2v.2m0,0h0v.1l.1.1m0,0h0l.1.1h.1m0,0,.1.1.1.1.1.2v.1m2.1,0h-.8m0,0,.9-1.2m0,0h0m0,0v1.1m0,0h.2m0,0v.1m0,0h-.2m0,0v.4m0,0h0m-.1,0v-.4m-1.4-1h-.2l-.1.2m.6,0v-.1l-.1-.1H806m-.1.5.3-.1.1-.1v-.1m-.4.4h0m.5.3v-.1h-.1l-.1-.1-.3-.1m.1.6h0l.3-.1v-.1l.1-.1m-.7.3h.3m-.4-.2h0l.1.2m-.2-.2h0m.5.4h-.2l-.2-.2-.1-.1v-.1m1-.1v.2l-.2.2-.1.1H806m.4-.8.1.1v.2m-.2-.4h0m.1-.3v.2l-.1.1m-.3-.7h.2l.1.1.1.2v.1m-.9,0,.1-.2.1-.1.2-.1h.1m-.3.4h-.2m-2.1-1.3h-.3m0,0V427m0,0h.3m0,0v-3.5m-1,0V427m0,0h.2m0,0v-3.5m0,0h-.2m.6,0h-.2m0,0V427m0,0h.2m0,0v-3.5m.1,9.5v-1.8m-.8,1.8v-1.8m.8,0h-.8M810,433v-1.8m.8,1.8v-1.8m0,0H810M799.7,433v-1.8m.8,1.8v-1.8m0,0h-.8m7.7,1.8v-1.8m.9,1.8v-1.8m0,0h-.9m-1.7,1.8v-1.8m-.9,1.8v-1.8m.9,0h-.9m-4.3,3.6v-1.2m-.8,1.2v-1.2m.8-.3h0v.3m-.8,0h0v-.3m.8-.3h0v.3m-.8-.3h.8m-.8.3V433m.8.6h-.8m2.6,0h0v-.3m.8,0h0v.3m0-.6h0v.3m-.8-.3h.8m-.8.3V433m0,1.8v-1.2m.8,1.2v-1.2m0,0h-.8m2.5,0h0v-.3m.9-.3h0v.3m-.9-.3h.9m-.9.3V433m.9.3h0v.3m5.1-.3h0v.3m-.8,0h0v-.3m.8-.3h0v.3m-.8-.3h.8m-.8.3V433m-5.2,1.8v-1.2m.9,1.2v-1.2m0,0h-.9m3.5,1.2v-1.2m-.9,1.2v-1.2m3.4,1.2v-1.2m0,0H810m0,1.2v-1.2m-1.7-.3h0v.3m0-.6h0v.3m-.9-.3h.9m-.9.3V433m0,.6h0v-.3m.9.3h-.9m-.3,5.6h0m.1,0v-1.1m0,0h0m-.1,0h-.4m0,0-.2.1-.1.2-.1.2m0,0,.1.2v.2l.2.1.1.1m0,0h.4m4.5-4.4H798.9m9.5,8.7h0l-.1.1-.1.2m0,0v1m0,0h0m-.1,0v-1m0,0,.1-.3v-.1h.1l.2-.1m0,0,.1.1h.1l.1.1m0,0-.1.1m0,0h0l-.1-.1h-.1m0,0h0m-4.3,1,.1.1.2.1m0,0h0l.2-.1.1-.1m0,0h0m.1,0v.1l-.1.1-.1.1h-.2m0,0h0l-.3-.1-.1-.1v-.1m0,0v-.2h.1v-.1h.1m0,0-.1-.1h-.1V444m0,0h0l-.1-.1v-.1m0,0,.1-.2.1-.2h.2l.1-.1m0,0,.2.1.2.1.1.1v.2m0,0h0m-.1,0-.1-.1v-.1m0,0-.1-.1h-.2m0,0h0l-.2.1-.1.1v.1m0,0v.1l.1.1.3.1m0,0h0m0,.1-.2.1h-.1l-.1.1v.1m4.8-3.7h.6m0,0v1.4m0,0h0m-.1,0v-1.3m0,0H809m0,0v-.1m-2.8,1,.1.1v.1l.1.1h.1m0,0h.2l.1-.1v-.1l.1-.1m0,0h0m.1,0v.2l-.2.1-.1.1h-.2m0,0h-.2l-.1-.1-.1-.1v-.2m0,0v-.2l.1-.1.1-.1.1-.1m0,0,.3-.4m0,0h-.6m0,0v-.1m0,0h.9m0,0-.5.6m0,0-.1.1-.1.1v.1l-.1.1m-.4-.3-.2.7m0,0h-.5m0,0h0m0-.1h.5m0,0v-.4m0,0h0m-.1,0h-.2l-.2-.2-.1-.1v-.2m0,0,.1-.2.1-.1.1-.1.2-.1m0,0,.2.1.1.1.1.1v.1m0,0h0m-.1,0V441l-.1-.1h-.2m0,0h-.2l-.1.1v.1l-.1.2m0,0,.1.1.1.1.1.1h.1m0,0h0l.2-.1h.1m-1.1,0-.1.7m0,0H804m0,0h0m0-.1h.5m0,0v-.4m0,0h0m-.1,0h-.2l-.2-.2-.1-.1v-.2m0,0,.1-.2.1-.1.1-.1.2-.1m0,0,.2.1.1.1.1.1.1.1m0,0h-.2m0,0V441l-.1-.1h-.2m0,0h0l-.3.1v.3m0,0v.1l.1.1.1.1h.1m0,0h0l.2-.1h.1m-1.8.3v-.2l.1-.1v-.1m0,0,.5-.7m0,0,.1.1m0,0-.4.6m0,0h0m.1,0h.2l.2.1v.2l.1.1m0,0-.1.2-.1.1-.1.1h-.2m0,0h-.2l-.1-.1-.1-.1v-.2m-2.1-.7V441l.1-.2h.2l.1-.1m0,0,.1.1.2.1.1.2m0,0h0m-.1,0-.1-.1-.1-.1h-.1m0,0h0l-.2.1h-.1v.1m0,0h0l.1.2m0,0v.1h.1l.1.1m0,0,.1.1h.1v.1m0,0,.1.1v.1m0,0v.2l-.1.1h-.2m0,0h-.3v-.1l-.1-.1m0,0,.1-.1m0,0,.1.1.1.1h.1m0,0h0l.1-.1h.1v-.1m0,0v-.1h-.1v-.1m0,0h0l-.1-.1h-.1m0,0-.1-.1-.1-.1-.1-.1v-.2m8.3-2.7h.5m0,0v.2m0,0h-.5m0,0v-.2m-2.9.2.1-.3.1-.2.3-.1.2-.1m0,0h.5m0,0v1.5m0,0h-.3m0,0h-.2l-.1-.1h-.2m0,0-.2-.1-.1-.2-.1-.4m-3.5-.7h0m.1,0v1.5m0,0h-.3m0,0h-.2l-.1-.1m0,0h0l-.2-.1-.1-.1V439m0,0v-.2l.1-.1h.1l.1-.1m0,0h.4m0,0h0m.1,0v-.7m-1,.7h0m0,.1h-.4m0,0v.4m0,0h-.2m0,0v-.4m0,0h-.4m0,0h0m0-.1h.4m0,0v-.4m0,0h.2m0,0v.4m0,0h.4m7,2.2h0m-.2,1,.2-1m-.7,0,.5,1m-.5-1h0m-.5,1,.5-1m-.7,0,.2,1m-.3-1h0m.2,1.4-.2-1.4m.2,1.4h0m.6-1.2-.6,1.2m1.2,0L808,441m.6,1.2h0m.2-1.4-.2,1.4m-3.1-3.8v1m.1-1.3h0l-.1.1v.2m.2-.3h0m.2.1h0l-.2-.1m.3,0h0m-.3-.2h0l.2.1.1.1m-.7.3.1-.3V438l.1-.1h.2m-.4,1.5v-1m.2,1h-.2m3,0h0m.7-1.5-.7,1.5m.5-1.5h.2m-.4.5.2-.5m-.8.5h.6m-.8-.5.2.5m-.4-.5h.2m.5,1.5-.7-1.5m.4.6.3.6m.2-.6H808m.3.6.2-.6m-10.3-3.7h.7m-.7,0v11.8m0,0v.2m0,0,.1-.1m.6-11.9v11.3m8.8-2.7h0m-.1,1,.1-1m-.6,0,.5,1m-.6-1h0m-.5,1,.5-1m-.6,0,.1,1m-.3-1h.2m0,1.4-.2-1.4m.3,1.4h0m.5-1.2-.5,1.2m1.1,0-.6-1.2m.6,1.2h0m.2-1.4-.2,1.4m-5-1.4v1.4m-.1-1.4h0m0,.6v-.6m-.1.6h0m-.4,0h.4m-.7.4v-.1l.1-.1.1-.1.1-.1m0,.8-.1-.1-.1-.1-.1-.1v-.1m.6.4H802m.6,0h-.3m-.1-.2h.3m-.7-.2.1.1v.1h.3m0-.4h-.3v.1l-.1.1m.7-.2h-.3m.3.4v-.4m1.3-.8v1.4m-.1-1.4h0m0,.6v-.6m-.2.6h.2m-.7-.6.5.6m-.6-.6h0m.5.6-.5-.6m0,1v-.1l.1-.1.1-.1.3-.1m-.2.8-.2-.1-.1-.1v-.2m.6.4h-.3m.6,0h-.3m-.1-.2h.3m-.7-.2v.1l.1.1h.3m0-.4h-.3l-.1.1v.1m.7-.2h-.3m.3.4v-.4M802,439l.1.1.1.1h.2m0,0h.3m0,0v-.5m0,0h-.3m0,0-.2.1h-.1v.1l-.1.1m1.3,3.1h0l.3-.1v-.2m0,0v-.1l-.1-.1-.1-.1h-.1m0,0-.1.1h-.1l-.1.1v.1m0,0v.1l.1.1.1.1h.1m-.8-.5-.5.6m.6-1v.2l-.1.1v.1m-.3-.9.2.1.1.1.1.1v.2m-.9,0,.1-.2.1-.2h.1l.2-.1m0,.9H802l-.2-.1v-.2l-.1-.1m.6.4h0m-.4.6.4-.6m-.3.6h0m-.1-1v.1l.1.1h.1l.1.1m0-.6h0l-.3.1v.2m.6,0V441h-.1l-.1-.1h-.1m0,.6.1-.1h.1l.1-.1v-.1m9.1,4.9V434.8m.8,12-.2-.1m.2.1v-.2m0,0V434.8m-.8,0h.8m-7.2,9.7v-.1l.1-.1.1-.1m.2.6h-.2l-.1-.1-.1-.1v-.1m.8,0v.1l-.1.1-.2.1h-.1m.2-.6.2.1v.2m.1-.7v.1l-.1.1-.2.2m-.2-.9.2.1.2.1.1.1v.2m-.9-.3.1-.1h.1l.1-.1h.1m-.5.5v-.1l.1-.1v-.1m.2.7-.2-.2-.1-.1v-.1m.2,0v.1l.1.1.1.1h.1m0-.6h0l-.3.1v.2m.7,0-.1-.2-.1-.1h-.2m0,.6h0l.3-.1v-.1l.1-.1m-.7.7.1.1.2.1m0-.5h0l-.2.1-.1.1v.1m.6,0v-.1l-.1-.1-.1-.1h-.1m0,.5h0l.2-.1.1-.1m6.3,2.2H798.3m13.3-.6.6.6m-13.3-.6h12.7m-13.3.6.6-.6m-26.6-9.7-.7-.1-.3-.3-.1-.1v-.2m0,0v-.2l.1-.1.3-.3.7-.1m0,0,.7.1.1.1.1.2.1.1v.2m0,0v.2l-.1.1-.2.3-.7.1m-1.1,1.1h0m0,0,2.1-.9m0,0v.2m0,0-1.6.7m0,0,1.6.7m0,0v.2m0,0-2.1-.9m6.4-2.2-.1-.3v-.6l-.1-.4-.1-.3-.1-.3-.1-.3-.1-.2m.6,2.4h.3m0,0-.3-1.7-.8-1.6-1.2-1.3-1.6-.8-1.8-.3-1.7.3-1.6.8-1.2,1.3-.9,1.6-.2,1.7m0,0,.2,1.8.9,1.5,1.2,1.3,1.6.8,1.7.3,1.8-.3,1.6-.8,1.2-1.3.8-1.5.3-1.8m-10.4-2.4-.5,1.6v1.7l.6,1.7,1.1,1.4,1.4.9,1.7.4,1.8-.1,1.6-.8,1.2-1.1.9-1.6.3-1.7m-8.8.2,1.1-.6m-2.1.6h1m-1,.2v-.2m1,.2h-1m2.1.7-1.1-.7m1.1.5v.2m-.9-.8.9.6m0-1.1-.9.5m.9-.7v.2m-2.1-1.1v-.2l.1-.2.3-.2m.1,1.2h-.2l-.2-.2-.1-.2V434m1.2.1-.2.3-.1.1-.2.1h-.2m.9-.7h0l-.1.1-.1.1m.4-.4h0l-.1.1h-.1v.1m.5.1v-.1l-.1-.1-.1-.1h-.1m0,.7.2-.1v-.1l.1-.1V434m-.1.6-.2-.2m.5-.4v.3l-.1.1-.1.1-.1.1m-.2-1.1.3.1.1.1.1.2v.1m-.8-.3h0l.2-.1.1-.1m-.6.5.1-.1.1-.1.1-.1m-.6.7.1-.2h.1l.1-.1V434m-.5.4h.2m-.5-.4v.2l.1.1.1.1h.1m0-.8-.2.1v.1l-.1.1v.1m.2-.6.1.2m6.3,3.7v-.2l.1-.2.3-.2.7-.1m0,1.4-.7-.1-.3-.3-.1-.1v-.2m2.2,0-.1.2v.1l-.3.3-.7.1m0-1.4.7.1.1.1.2.1v.2l.1.2m-.2,0-.1-.2V437l-.1-.1h-.2l-.5-.1m0,1,.5-.1.3-.2v-.1l.1-.1m-1.4.4.1.1h.4m-.9-.5.1.2v.1l.3.1m.5-.9-.6.1-.2.1-.1.1v.2m-1.5-3.4v.8m-1-1,1,.2m-.9.2V434l-.1-.1v-.2m-.4.9h.2l.2-.2.1-.1v-.2m-1,0v.2l.2.2.1.1h.2m-.1-1-.2.1-.1.1-.1.2v.1m.4-.6v.1m-.6.5v-.3l.2-.2.2-.1h.2m.1,1.3-.3-.1-.3-.1-.1-.3v-.2m1.4.1-.1.2-.2.3-.2.1h-.2m.6-.9.1.1v.2m.5-.2-.6-.1m.6.8V434m.2.7h-.2m-5.3,2.1h2.1m-2.1.1v-.1m1,.1h-1m0,1,1-1m-1,1.2v-.2m1.1-.9-1.1,1.1m2.1,0-1-1.1m1,.8v.3m-.8-1.2.8.9m0-.9h-.8m.8-.1v.1m2.4-.7.5-.1.2-.1.1-.2v-.1m0,0h0l-.1-.3-.1-.1h-.1l-.5-.1m0,0-.6.1-.2.1-.1.2v.1m0,0v.2l.1.1.2.1m0,0,.2.1h.4m2.3-.5v-.2l.1-.1.3-.3.7-.1m0,1.4-.7-.1-.3-.3-.1-.1v-.2m2.2,0-.1.2v.1l-.3.3-.7.1m0-1.4.7.1.1.1.2.2v.1l.1.2m-1.1.5.5-.1.3-.1v-.2l.1-.1m0,0-.1-.1v-.2l-.1-.1h-.2l-.5-.1m0,0-.6.1-.2.1-.1.2v.1m0,0,.1.2v.1l.3.1m0,0,.1.1h.4m.8-2.5.2.2m-.2.2v-.4m-1.8.4h1.8m-1.8.1h0m2,0h-2m2-.3v.3m47.9,1.5h0l-.1-.3-.1-.1h-.1l-.6-.1m0,1,.6-.1.2-.1.1-.2v-.1m-1.4.4.2.1h.3m-.8-.5v.2l.1.1.2.1m.5-.9-.5.1-.2.1-.1.2v.1m-2.6.5.6-.1.2-.1.1-.2v-.1m0,0h0l-.1-.3-.1-.1h-.1l-.6-.1m0,0-.5.1-.3.1v.2l-.1.1m0,0,.1.2.1.1.2.1m0,0,.2.1h.3m4.3,1.1v-.2l-.1-.1-.1-.1h-.1l-.6-.1m0,1,.6-.1.2-.2.1-.1v-.1m-1.4.4.2.1h.3m-.8-.5v.2l.1.1.2.1m.5-.9-.5.1-.2.1-.1.1v.2M777,432.9l-.9-1.2-1.1-.9-1.3-.6-1.5-.2-1.4.2-1.3.6-1.1.9-.9,1.2m0,0H777m48.6,2.4h.4m0,0-.3-1.7-.8-1.6-1.3-1.3-1.6-.8-1.7-.3-1.8.3-1.5.8-1.3,1.3-.8,1.6-.3,1.7m0,0,.3,1.8.8,1.5,1.3,1.3,1.5.8,1.8.3,1.7-.3,1.6-.8,1.3-1.3.8-1.5.3-1.8m-1-2.4-.8-1.2-1.2-.9-1.3-.6-1.4-.2-1.4.2-1.4.6-1.1.9-.8,1.2m0,0H825m-9.4,0-.6,1.6.1,1.7.5,1.7,1.1,1.4,1.5.9,1.7.4,1.7-.1,1.6-.8,1.3-1.1.8-1.6.3-1.7m0,0v-.6l-.1-.3V434l-.1-.3-.1-.3-.2-.3-.1-.2m-.4,1.2v-.4m0,0,.2.2m0,0v.3m0,0h-2.1m0,0h0m0-.1h1.9m-.9,2.3-.7-.1-.2-.3-.1-.1v-.2m0,0v-.2l.1-.1.2-.3.7-.1m0,0,.7.1.2.1.1.2.1.1v.2m0,0v.2l-.1.1-.3.3-.7.1m0,1.6-.7-.1-.2-.3-.1-.1v-.2m0,0v-.2l.1-.2.2-.2.7-.1m0,0,.7.1.2.1.1.1.1.2v.2m0,0v.2l-.1.1-.3.3-.7.1m-3.4-4.3,1,.2m0,0v.8m0,0h-.2m0,0V434m0,0-.5-.1m0,0v.3m0,0v.2l-.2.3-.2.1H820m0,0-.4-.1-.2-.1-.1-.3-.1-.2m0,0,.1-.3.1-.2.2-.1h.2m0,0v.1m0,0-.2.1-.1.1v.2l-.1.1m0,0,.1.2.1.2.2.1h.2m0,0h.2l.1-.2.1-.1v-.2m0,0v-.2l-.1-.1v-.1m0,2.7-.7-.1-.3-.3v-.1l-.1-.2m0,0,.1-.2v-.1l.3-.3.7-.1m0,0,.7.1.2.1.1.2.1.1v.2m0,0v.2l-.1.1-.3.3-.7.1m-1,1.1h0m0,0,2-.9m0,0v.2m0,0-1.6.7m0,0,1.6.7m0,0v.2m0,0-2-.9m-2.9-2.9h-.3l-.2-.2-.1-.2V434m0,0v-.2l.2-.2.3-.2m0,0,.1.2m0,0-.2.1-.1.1-.1.1v.1m0,0v.2l.1.1.1.1h.2m0,0h.2m0,0,.1-.2h.1v-.1l.1-.1m0,0,.1-.1v-.1l.1-.1h.1m0,0,.1-.1.1-.1h.1m0,0,.2.1.2.1v.2l.1.1m0,0-.1.3-.1.1-.1.1-.1.1m0,0-.1-.2m0,0,.1-.1.1-.1v-.1l.1-.1m0,0-.1-.1v-.1l-.1-.1h-.1m0,0h0l-.2.1-.1.1m0,0h0l-.1.1v.1H817m0,0-.2.3-.1.1-.2.1h-.1m-.5.9h.9m0,0,1.1-.6m0,0v.2m0,0-.9.5m0,0,.9.6m0,0v.2m0,0-1.1-.7m0,0h-.9m0,0v-.2m0,1.4v-.1m0,0h2m0,0v.1m0,0h-.8m0,0,.8.9m0,0v.3m0,0L817,437m0,0-1.1,1.1m0,0v-.2m0,0,1-1m0,0h-1m-13.6,16.2v-.7m9.9,0h0v.7m-9.9,0v11.7m9.9-11.7v11.7m0-11.7h-9.9m0,19.6v-7.9m9.9,0v7.9m-9.9-7.9h9.9m-9.9,7.9v8m9.9-8v8m0-8h-9.9m0,8.8h0v-.8m9.9,0v.8m-9.9-.8h9.9m0,.8h-9.9M583.5,428.4h-8.8m-2.6-34.1.1-.5.1-.5.3-.5.4-.5.4-.3.5-.3.5-.1.6-.1m-1.5,2.8h-1.4m-.2,31.2.2-31.2m1.2,31.2h-1.4m2.8,2.9-.6-.1-.5-.2-.5-.2-.4-.4-.4-.4-.2-.5-.2-.5v-.6m2.8,1.5v1.4m.3-36.9,8.8.1m-8.8,1.3v-1.4m-1.7,34v.3l.1.3.1.2.2.2.2.2.3.1.2.1.3.1m0,0h8.8m.2-34-8.7-.1m0,0-.3.1h-.3l-.2.2-.3.1-.1.3-.2.2v.3l-.1.2m0,0-.2,31.2m66.6.5-.1.6-.1.5-.3.5-.3.4-.5.4-.5.2-.5.2H637m0,0h-5.9m5.9,0h0v-.2l.1-.2v-1m-5.7-35.5,5.9.1m2.6,34h-1.4m1.6-31.2-.2,31.2m-2.6-32.6h-5.9m-.3,34h6m0,0h.2l.3-.1.2-.1.3-.2.1-.2.2-.2.1-.3V426m0,0,.2-31.2m-1.4-2.8h0v1.4m1.4,1.4v-.2l-.1-.3-.1-.3-.2-.2-.2-.2-.2-.1-.3-.1h-.3m2.8,1.4h-1.4m-1.4-2.8h.6l.5.2.5.3.4.3.4.5.2.5.2.5v.5M583.5,427l.2-34m-.2,34v1.4m7.4.1h-5.5l-.9-.1h-1m0-1.4H587l.8.1h2.5m-6.5-35.5h7.4m-7.5,1.4.1-.3v-1.1m6.7,1.5-.8-.1h-6m47.7-1.1v1.5m-7.5-1.5h7.5m-.3,36.9h0v-1.4m0,1.4h-4.8l-.9-.1h-1.7m7.7-35.3-.3,34m.3-34h-.9l-.9-.1h-5m-.2,34h3.2l.9.1h2.6m-40.8-.3v.5l.1.3v.2l.1.2.2.1.1.1h.1m2.7,0h-2.7m.3-36.9h.6l.4.1h1.7m-3.4,1.4v-.3l.1-.3v-.2l.1-.2.1-.2.1-.2h.2l.1-.1m-.9,35.5.2-34m-.2,34h3.3m.3-34h-3.4m3.1,35.4h0v-1.4m27.4,1.6-27.4-.2m30.1.2h0l.2-.1.1-.1.1-.2.1-.2.1-.2v-.3l.1-.3m-3.4,1.4h0v-1.4m2.7,1.4H621m3.6-35.4-.2,34m-3.4,0h3.4m-30.5-35.6,27.3.2m-27.3,1.2v-1.4M621,427.3l.2-34m0,0-27.3-.2m0,0-.3,34m0,0,27.4.2m.2-34v-1.4m3.4,1.4h-3.4m2.7-1.4h.2l.1.1.1.1.1.2.1.2.1.3v.5m-3.4-1.4h2.7m207.4,32v.2m0,0h0m-69.4,22.2h-2.6m60.2.5-4-.1M761.9,425h-2.4m16.5.1h-2m-14.7,21.2.2-21.3m11.2,90.4.5-.1.5-.1.5-.3.5-.3.3-.5.3-.5.1-.5.1-.5m-2.8-44,.5.1.5.1.5.3.5.3.3.5.3.5.1.5.1.5m-71.3,44H670m100.7,0H743.3m27.4-2.8v2.8m-103.5-2.8v.5l.2.5.3.5.3.5.5.3.4.3.6.1.5.1m0-2.8v2.8m100.7-2.8h2.8m0-41.2v41.2m-2.8-41.2h2.8M670,468.6l-.5.1-.6.1-.4.3-.5.3-.3.5-.3.5-.2.5v.5m2.8-2.8h0v2.8m100.7-2.8h0v2.8m-27.4-2.8h27.4m-100.7,0h32.2m-35,44H670m-2.8-41.2H670m-2.8,41.2V471.4m2.8,0v41.2m100.7,0V471.4m-68.5-10v7.2m41.1-7.2v7.2m-7.1,107.2,1.4-.1,1.4-.4,1.2-.5,1.1-.8.8-.9.7-1.1.4-1.2.1-1.2m0,0v-1m-41.1,0v1m0,0,.2,1.2.4,1.2.6,1.1.9.9,1.1.8,1.2.5,1.3.4,1.4.1m0,0v-1m0,1h26.9m0-1v1m7.1-107.2v100m-41.1-100h41.1m-41.1,0v100m7.1,6.2-1.4-.2-1.3-.3-1.2-.6-1.1-.7-.9-1-.6-1-.4-1.2-.2-1.2m7.1,6.2h26.9m7.1-6.2-.1,1.2-.4,1.2-.7,1-.8,1-1.1.7-1.2.6-1.4.3-1.4.2M715.4,295.5l-.5.3-1.1.5-.9.2h-.1m-.3.2v3.4m345.9.2h0v-.2m-345.6.1.6.2,1.2.4.9.5m38.7-4.7h0l-.9-.1-1.8-.5-.9-.5m0,5.8.1-.1,1-.5.8-.3.7-.2h.7l.1-.1h-.3m300.4-3.5H754.2m-192.1,3.6.4.1,1.6.5.7.5m0-5.8-.4.3-1,.4-1,.2-.8.1h-.4m41.7,3.6v-3.4m-3,4.6.9-.5.9-.3.7-.2.2-.1m0-3.7-.6-.1-1.2-.4-.8-.5m-38.7,1.1H261.4M650.6,382v.7m14.2,0V382m-13.7-16.8v.2m25.9,3.9-2.8-8.7m-35.8,8.8v.2l-.1.1v.5m16.1-43.4-.4,16.8m2.8.1.4-16.8m26.7,50.7,2.4-3.9m.5-1.5v-2m-.5,3.5.1-.2.1-.1.1-.2.1-.2v-.4l.1-.2v-.2m-69.4,62.3h0l1,.4.6.1m0,0h1.2m0,0h.4l.9-.4.2-.1m30.2-136,.5,16.6m0,0h0m7.4.5,1.1-13m-1.7-8.4-1.1-.6-1.4-.2-.1.1m.1-.1-.8.1m-3.4,20.9-.4,12.2m7.4.2.3-11.5m-3.9-21.8-1.3.3-1.1.6-.8,1.1-.6,1.2-.2,1.4v.4m12.3,62.1-.5-8.4m0,0h0v-.3l.1-.8m0,0,.1-.3v-.2m0,0-.4-15.5m26.2,81.6.2-.4m0-.2.1-.2v-.6m-.6,2.3.1-.3.1-.4m-.2.6v.1m.1.6h0l-.1-.6m.6-2.3-2.6-14.9m-7.3,1.3,2.1,11.5m8.9,13.4-1.6-8.5m.4,14.9h0l.6-.2.4-.4.2-.3.2-.5.1-.8v-2.4l-.2-1.3-.1-.5m-2.6,6.6,1.4-.2m-3.7-2.4.1.4.4,1,.3.5.5.4.5.3h.5m-69-48.5-.3-7.9m-6.6,9.5-.1.1v.4m7.3-1-.2-.5-.1-.5v-.1m-6.9,1h0v.2l-.1.4m7.3,0v-.2l-.1-.2m-7.2.9.3,3.7m7.4,0-.4-4.2m-8.4-11.5,1.3,11m1.9-16.8h-.4l-1,.4-.7.6-.6,1-.4,1.3-.2,1.4.1,1.1m4.4-5.9-1.2.1m4.1,2.5v-.1l-.7-1.2-.7-.8-.9-.4h-.6m68.4,15.3-1.4-10.1m1.6,10.5h0l-.2-.5h-.1m-7.2-14.8h0l-.9.5-.5.7-.3,1-.1,1.2.2,1.4m2.2,12.1h0v.5m.6-17.8-1.2.3m5.9,4.9-.2-.7-.4-1.4-.7-1.3-.8-1-.9-.7-.9-.2-.7.1m-.8,15.3.1.2.1.9-.1.8m7.2-.7v-.2l-.2-.5-.2-.2m-9-10.4,2.2,10.2m0,2.4,2.6,14.9m7.3-1.3-2.6-14.9m-8.3-3.5.9,3.8v.3m7.3-.7-1-7.8m-4.9-8.7h-.2l-.9.2m3.7,1.1-.6-.6-1.1-.6h-.4m-1.6.1-.3.1M654.2,296l-.5.5m0,3.7.3.4.3.3.2.2m-23.3,60.2-.3.3m4.7,4.7.5-.3.1-.1m-5.3-.6.6.7.5.3m4.1-5.3h0l-.3-.3-.4-.2-.4-.2-.2-.1m51.4,65.5h0l-.8,1.1-.2,1.3.2,1.3m6.1.5.2-.3.3-1.3-.3-1.3-.7-1.2-.1-.1m-5.5,3.7.7,1.1.9.7m-69.9-54.5.4-.3.5-.6m0-3.8-.2-.3-.3-.3-.3-.3h-.1m64.5,5,.1-.1.6-1.2v-1.3l-.4-1.3-.9-1-1.1-.6m-28-5.5.9,1,1.2.6,1.3.1,1.2-.4,1-.8.6-1.2.2-1.4-.5-1.2-.8-1-1.2-.6-1.3-.1-1.3.4-1,.9-.6,1.1-.1,1.4.4,1.2m10.5-4.5-.1-.1M630.9,309l10.7,2m0-25.2-10.7,2m12-2.1-1.3.1m-.1,25.2h0l1.4.1m0,0h1m-.5-25.5h-.5m29.6,0h-2.1m0,25.5h2.1m1.4-25.3-1.3-.2h-.1m0,25.5h1.1l.3-.1m10.6-23.2-10.6-2m0,25.2,10.6-2m-90.6,66.3h17.5m-27.4,0h5.7m0-2.8H584m27.4,0H593.9m44.5,5.1V382M662,360.6V333.8m0,71.2v-.3m0,17.7v-.3m0,29.4v-4.3m0,78V461.4m-8.5,0v63.8m0-78v4.3m0-29.4v.3m0-17.7v.3m0-71.2v26.6m-59.6-42.2h-4.2m16.4,123.2v1.2m27.9,1.8h0m47.4-4.8h0m-38.7-.9-1,1.9-3.4,6.6m33.4,0,.6-1.1,3.8-7.4m-10.4,8.5.6-1.1,3.9-7.4m-21.5,0-1,1.9-3.5,6.6m24.8-8.5v-2.8m-22.6,0v2.8m0-56v2.9m22.6,0v-2.9m-30.6,2.9-.3.8-.5.7-.5.7-.5.7-.7.6-.7.4-.8.4-.8.3m43.8-3.7-.3-.9m1.9,50.3v-1.4m-42.5,0v1.4m97.3-12.8,1.3-7.7m-40.9,0,.9,5.5m-.2-6.3h0l-.3.1-.1.1-.1.1-.1.1-.1.1v.3m40.9,0v-.1l-.1-.2V415l-.1-.1-.1-.1-.1-.1-.2-.1h-.1m-39.6-35.4h-.3l-.1.1-.1.1-.1.1-.1.1v.3m41.1,0v-.2l-.1-.1v-.1l-.1-.1-.1-.1-.1-.1h-.3m.7,11.3V379.9m0,34V397.6m-41.1,3.5v12.8m0-34v10.6m0,23.4v.3l.1.1.1.1.1.1.1.1h.3m39.7,0h.3l.1-.1.1-.1.1-.1v-.1l.1-.2v-.1M633.1,369.6l3.1-.4m12.7-51h-.6m-18-30.4h0m0,21.2h0m-49.4-21.2v3.5m0,14.2V309m104.2-21.2h0m0,21.2h0m49.4-17.7v-3.5m0,21.2v-3.5m-.1-14.2h0m.1,3.9v-3.9M707.4,434.5v4.2m14.5,0v-4.2m-10.7,4.2.2.3,1.9,4.4.4,1.1m3.8,2.7-.1-.2-1.7-3.9M416,407.5H538.7m-330.3,0H360m4.7-14.1H208.4m186.4,0h-23m166.9,0H416M171.3,314.8h0m0,0h0m0,0,1,56m0,0v.1m.1,0h0m0,0h0m.3.4,8.5,11m11.5-2.9-1.1-58.6m3.7,165.3h.4m9.7-56.9h0m0,0h0m0,0h0m-.3-.5-9-10.4m13.1,66.8-3.8-55.9m3.7,55.9h0m0,0h.1m-24.5-63.4,3.9,58.4M360,407.5l-1.1.5-2,1.1-1.9,1.4-1.7,1.7-1.3,1.9-1.1,2m3.8,1.8.9-1.6,1-1.3,1.2-1.3,1.4-1,1.5-.9,1.6-.6,1.7-.3.7-.1m7.1-.1h23m12.7,13.5v-7.8m-4.2,0v7.8M290.4,534H271.8m0,4.3h18.6m0,0,2.3-.2,2.3-.5,2.2-.8,2-1.1,1.9-1.4,1.7-1.7,1.4-1.9,1.1-2.1m-3.9-1.7-.8,1.5-1.1,1.4-1.2,1.3-1.4,1-1.5.8-1.6.7-1.7.3-1.7.1m60.5-117.9L301.4,526.9m3.9,1.7,49.4-110.7m10-4.3h7.1m0-23.1h-7.1m51.3-1.4H394.8m439.4,32h0m0,0h0m-13-24.8v.2m2.9,0v-.2m0,0v-.1H824v-.1h-.1m-2.5,0h0l-.2.1v.1m-68.5-7.2v1.4m5.6,7.5v-8.9m0,10.1h0m0,15.4v-9.7M832,389.1v25.5m5.7,0V389.1m-31.8,23.1h0m-3.4-.1h0m-10.8.1h0m3.6,0h0m14.1,0h0m-3.3-.1h0m-3.8.1h0m-3.2-.1h0m-10.9.1h0m10.6,0h0m-3.4-.1h0m17.6.1h0m-3.4-.1h0m-18.4,8.6h0m-.1,19h0m-5.5-19h0l-.1-.1h-.1m5.8,19,.1-.8m0-17.3-.1-.8m-5.6.8v-.8m0,18.9v-.8m26.6,13.6h-9.9m33.3-17.8-4.3-.4m0,4,4.3-.3" transform="translate(0 0)"/><rect class="cls-1" width="1190.6" height="841.9"/><path class="cls-8" d="M819.7,396.8h0m0,.9h0" transform="translate(0 0)"/></svg>